<?xml version="1.0" encoding="UTF-8" standalone="no"?>
<!DOCTYPE svg PUBLIC "-//W3C//DTD SVG 1.1//EN"
 "http://www.w3.org/Graphics/SVG/1.1/DTD/svg11.dtd">
<!-- Generated by graphviz version 2.43.0 (0)
 -->
<!-- Title: Architecture (Terraform) Pages: 1 -->
<svg width="260pt" height="313pt"
 viewBox="0.00 0.00 259.80 312.80" xmlns="http://www.w3.org/2000/svg" xmlns:xlink="http://www.w3.org/1999/xlink">
<g id="graph0" class="graph" transform="scale(1 1) rotate(0) translate(14.4 298.4)">
<title>Architecture (Terraform)</title>
<text text-anchor="middle" x="115.5" y="-9.6" font-family="Helvetica,sans-Serif" font-size="18.00" fill="#2d3436">Architecture (Terraform)</text>
<g id="clust1" class="cluster">
<title>cluster_Compute</title>
<path fill="#e5f5fd" stroke="#aeb6be" d="M30.5,-36C30.5,-36 99.5,-36 99.5,-36 105.5,-36 111.5,-42 111.5,-48 111.5,-48 111.5,-264 111.5,-264 111.5,-270 105.5,-276 99.5,-276 99.5,-276 30.5,-276 30.5,-276 24.5,-276 18.5,-270 18.5,-264 18.5,-264 18.5,-48 18.5,-48 18.5,-42 24.5,-36 30.5,-36"/>
<text text-anchor="middle" x="54" y="-262.4" font-family="Sans-Serif" font-size="12.00" fill="#2d3436">Compute</text>
</g>
<g id="clust2" class="cluster">
<title>cluster_IBM</title>
<path fill="#ebf3e7" stroke="#aeb6be" d="M38.5,-44C38.5,-44 91.5,-44 91.5,-44 97.5,-44 103.5,-50 103.5,-56 103.5,-56 103.5,-235 103.5,-235 103.5,-241 97.5,-247 91.5,-247 91.5,-247 38.5,-247 38.5,-247 32.5,-247 26.5,-241 26.5,-235 26.5,-235 26.5,-56 26.5,-56 26.5,-50 32.5,-44 38.5,-44"/>
<text text-anchor="middle" x="46" y="-233.4" font-family="Sans-Serif" font-size="12.00" fill="#2d3436">IBM</text>
</g>
<g id="clust3" class="cluster">
<title>cluster_Storage</title>
<path fill="#e5f5fd" stroke="#aeb6be" d="M131.5,-36C131.5,-36 200.5,-36 200.5,-36 206.5,-36 212.5,-42 212.5,-48 212.5,-48 212.5,-264 212.5,-264 212.5,-270 206.5,-276 200.5,-276 200.5,-276 131.5,-276 131.5,-276 125.5,-276 119.5,-270 119.5,-264 119.5,-264 119.5,-48 119.5,-48 119.5,-42 125.5,-36 131.5,-36"/>
<text text-anchor="middle" x="151.5" y="-262.4" font-family="Sans-Serif" font-size="12.00" fill="#2d3436">Storage</text>
</g>
<g id="clust4" class="cluster">
<title>cluster_IBM</title>
<path fill="#ebf3e7" stroke="#aeb6be" d="M139.5,-44C139.5,-44 192.5,-44 192.5,-44 198.5,-44 204.5,-50 204.5,-56 204.5,-56 204.5,-235 204.5,-235 204.5,-241 198.5,-247 192.5,-247 192.5,-247 139.5,-247 139.5,-247 133.5,-247 127.5,-241 127.5,-235 127.5,-235 127.5,-56 127.5,-56 127.5,-50 133.5,-44 139.5,-44"/>
<text text-anchor="middle" x="147" y="-233.4" font-family="Sans-Serif" font-size="12.00" fill="#2d3436">IBM</text>
</g>
<!-- d343bddc9de74ebfa0e18a55af2416da&#45;&gt;256aba8203154022a358c0c475870f20 -->
<g id="edge1" class="edge">
<title>d343bddc9de74ebfa0e18a55af2416da&#45;&gt;256aba8203154022a358c0c475870f20</title>
<path fill="none" stroke="#6b7280" stroke-width="0.9" d="M95.58,-135C95.58,-135 128.68,-135 128.68,-135"/>
<polygon fill="#6b7280" stroke="#6b7280" stroke-width="0.9" points="128.68,-137.28 135.18,-135 128.68,-132.73 128.68,-137.28"/>
</g>
<!-- d343bddc9de74ebfa0e18a55af2416da -->
<g id="node1" class="node">
<title>d343bddc9de74ebfa0e18a55af2416da</title>
<image xlink:href="/home/suryakumaran/GitHub/auto-arch-diagram/.venv/lib/python3.12/site-packages/resources/generic/compute/rack.png" width="61px" height="61px" preserveAspectRatio="xMinYMin meet" x="34.5" y="-165.5"/>
<text text-anchor="middle" x="65" y="-64.8" font-family="Helvetica,sans-Serif" font-size="9.00" fill="#2d3436">Resource…</text>
<text text-anchor="middle" x="65" y="-54.8" font-family="Helvetica,sans-Serif" font-size="9.00" fill="#2d3436">cos</text>
</g>
<!-- 256aba8203154022a358c0c475870f20 -->
<g id="node2" class="node">
<title>256aba8203154022a358c0c475870f20</title>
<image xlink:href="/home/suryakumaran/GitHub/auto-arch-diagram/.venv/lib/python3.12/site-packages/resources/generic/compute/rack.png" width="61px" height="61px" preserveAspectRatio="xMinYMin meet" x="135.5" y="-165.5"/>
<text text-anchor="middle" x="166" y="-64.8" font-family="Helvetica,sans-Serif" font-size="9.00" fill="#2d3436">Cos Bucket</text>
<text text-anchor="middle" x="166" y="-54.8" font-family="Helvetica,sans-Serif" font-size="9.00" fill="#2d3436">site</text>
</g>
</g>
</svg>
