<?xml version="1.0" encoding="UTF-8" standalone="no"?>
<!DOCTYPE svg PUBLIC "-//W3C//DTD SVG 1.1//EN"
 "http://www.w3.org/Graphics/SVG/1.1/DTD/svg11.dtd">
<!-- Generated by graphviz version 2.43.0 (0)
 -->
<!-- Title: Architecture (Terraform) Pages: 1 -->
<svg width="324pt" height="1456pt"
 viewBox="0.00 0.00 323.80 1455.80" xmlns="http://www.w3.org/2000/svg" xmlns:xlink="http://www.w3.org/1999/xlink">
<g id="graph0" class="graph" transform="scale(1 1) rotate(0) translate(14.4 1441.4)">
<title>Architecture (Terraform)</title>
<text text-anchor="middle" x="147.5" y="-9.6" font-family="Helvetica,sans-Serif" font-size="18.00" fill="#2d3436">Architecture (Terraform)</text>
<g id="clust1" class="cluster">
<title>cluster_Storage</title>
<path fill="#e5f5fd" stroke="#aeb6be" d="M20,-463C20,-463 182,-463 182,-463 188,-463 194,-469 194,-475 194,-475 194,-1407 194,-1407 194,-1413 188,-1419 182,-1419 182,-1419 20,-1419 20,-1419 14,-1419 8,-1413 8,-1407 8,-1407 8,-475 8,-475 8,-469 14,-463 20,-463"/>
<text text-anchor="middle" x="40" y="-1405.4" font-family="Sans-Serif" font-size="12.00" fill="#2d3436">Storage</text>
</g>
<g id="clust2" class="cluster">
<title>cluster_AWS</title>
<path fill="#ebf3e7" stroke="#aeb6be" d="M28,-471C28,-471 174,-471 174,-471 180,-471 186,-477 186,-483 186,-483 186,-1378 186,-1378 186,-1384 180,-1390 174,-1390 174,-1390 28,-1390 28,-1390 22,-1390 16,-1384 16,-1378 16,-1378 16,-483 16,-483 16,-477 22,-471 28,-471"/>
<text text-anchor="middle" x="38" y="-1376.4" font-family="Sans-Serif" font-size="12.00" fill="#2d3436">AWS</text>
</g>
<g id="clust3" class="cluster">
<title>cluster_Other</title>
<path fill="#e5f5fd" stroke="#aeb6be" d="M113,-36C113,-36 275,-36 275,-36 281,-36 287,-42 287,-48 287,-48 287,-443 287,-443 287,-449 281,-455 275,-455 275,-455 113,-455 113,-455 107,-455 101,-449 101,-443 101,-443 101,-48 101,-48 101,-42 107,-36 113,-36"/>
<text text-anchor="middle" x="126.5" y="-441.4" font-family="Sans-Serif" font-size="12.00" fill="#2d3436">Other</text>
</g>
<g id="clust4" class="cluster">
<title>cluster_AWS</title>
<path fill="#ebf3e7" stroke="#aeb6be" d="M121,-44C121,-44 267,-44 267,-44 273,-44 279,-50 279,-56 279,-56 279,-414 279,-414 279,-420 273,-426 267,-426 267,-426 121,-426 121,-426 115,-426 109,-420 109,-414 109,-414 109,-56 109,-56 109,-50 115,-44 121,-44"/>
<text text-anchor="middle" x="131" y="-412.4" font-family="Sans-Serif" font-size="12.00" fill="#2d3436">AWS</text>
</g>
<!-- 1972d377d3ff4abba5d9b33fb031ee24&#45;&gt;d2b68c1d9ab64a65bddea1a860d2148a -->
<g id="edge3" class="edge">
<title>1972d377d3ff4abba5d9b33fb031ee24&#45;&gt;d2b68c1d9ab64a65bddea1a860d2148a</title>
<path fill="none" stroke="#6b7280" stroke-width="0.9" d="M85.21,-1066.67C85.21,-1066.67 110.32,-1066.67 110.32,-1066.67"/>
<polygon fill="#6b7280" stroke="#6b7280" stroke-width="0.9" points="110.32,-1068.94 116.82,-1066.67 110.32,-1064.39 110.32,-1068.94"/>
</g>
<!-- 1972d377d3ff4abba5d9b33fb031ee24&#45;&gt;1cfb5455e6bb40059b57ee753571d896 -->
<g id="edge4" class="edge">
<title>1972d377d3ff4abba5d9b33fb031ee24&#45;&gt;1cfb5455e6bb40059b57ee753571d896</title>
<path fill="none" stroke="#6b7280" stroke-width="0.9" d="M55,-1092.27C55,-1171.27 55,-1278 55,-1278 55,-1278 110.46,-1278 110.46,-1278"/>
<polygon fill="#6b7280" stroke="#6b7280" stroke-width="0.9" points="110.46,-1280.28 116.96,-1278 110.46,-1275.73 110.46,-1280.28"/>
</g>
<!-- 1972d377d3ff4abba5d9b33fb031ee24&#45;&gt;6acdcf01dba34ed48d579c4470391e3e -->
<g id="edge2" class="edge">
<title>1972d377d3ff4abba5d9b33fb031ee24&#45;&gt;6acdcf01dba34ed48d579c4470391e3e</title>
<path fill="none" stroke="#6b7280" stroke-width="0.9" d="M85.1,-1009.5C141.47,-1009.5 256,-1009.5 256,-1009.5 256,-1009.5 256,-403.7 256,-403.7"/>
<polygon fill="#6b7280" stroke="#6b7280" stroke-width="0.9" points="258.28,-403.7 256,-397.2 253.73,-403.7 258.28,-403.7"/>
</g>
<!-- 83e0662f0cb843bd90b189b1ae2b5785&#45;&gt;d2b68c1d9ab64a65bddea1a860d2148a -->
<g id="edge6" class="edge">
<title>83e0662f0cb843bd90b189b1ae2b5785&#45;&gt;d2b68c1d9ab64a65bddea1a860d2148a</title>
<path fill="none" stroke="#6b7280" stroke-width="0.9" d="M85.26,-768.67C93.9,-768.67 101,-768.67 101,-768.67 101,-768.67 101,-1041.33 101,-1041.33 101,-1041.33 110.24,-1041.33 110.24,-1041.33"/>
<polygon fill="#6b7280" stroke="#6b7280" stroke-width="0.9" points="110.24,-1043.61 116.74,-1041.33 110.24,-1039.06 110.24,-1043.61"/>
</g>
<!-- 83e0662f0cb843bd90b189b1ae2b5785&#45;&gt;d25ff982940c4a72ae4f0e922defb9b1 -->
<g id="edge7" class="edge">
<title>83e0662f0cb843bd90b189b1ae2b5785&#45;&gt;d25ff982940c4a72ae4f0e922defb9b1</title>
<path fill="none" stroke="#6b7280" stroke-width="0.9" d="M85.21,-713.33C85.21,-713.33 110.32,-713.33 110.32,-713.33"/>
<polygon fill="#6b7280" stroke="#6b7280" stroke-width="0.9" points="110.32,-715.61 116.82,-713.33 110.32,-711.06 110.32,-715.61"/>
</g>
<!-- 83e0662f0cb843bd90b189b1ae2b5785&#45;&gt;767f6d528e144d51845b070c75cf21f5 -->
<g id="edge8" class="edge">
<title>83e0662f0cb843bd90b189b1ae2b5785&#45;&gt;767f6d528e144d51845b070c75cf21f5</title>
<path fill="none" stroke="#6b7280" stroke-width="0.9" d="M55,-824.35C55,-854.61 55,-881.5 55,-881.5 55,-881.5 110.46,-881.5 110.46,-881.5"/>
<polygon fill="#6b7280" stroke="#6b7280" stroke-width="0.9" points="110.46,-883.78 116.96,-881.5 110.46,-879.23 110.46,-883.78"/>
</g>
<!-- 83e0662f0cb843bd90b189b1ae2b5785&#45;&gt;749e1c46f7934cb088bf528c9c772307 -->
<g id="edge9" class="edge">
<title>83e0662f0cb843bd90b189b1ae2b5785&#45;&gt;749e1c46f7934cb088bf528c9c772307</title>
<path fill="none" stroke="#6b7280" stroke-width="0.9" d="M65,-657.79C65,-611.04 65,-562 65,-562 65,-562 110.28,-562 110.28,-562"/>
<polygon fill="#6b7280" stroke="#6b7280" stroke-width="0.9" points="110.28,-564.28 116.78,-562 110.28,-559.73 110.28,-564.28"/>
</g>
<!-- 83e0662f0cb843bd90b189b1ae2b5785&#45;&gt;6acdcf01dba34ed48d579c4470391e3e -->
<g id="edge5" class="edge">
<title>83e0662f0cb843bd90b189b1ae2b5785&#45;&gt;6acdcf01dba34ed48d579c4470391e3e</title>
<path fill="none" stroke="#6b7280" stroke-width="0.9" d="M45,-657.8C45,-568.1 45,-438 45,-438 45,-438 226,-438 226,-438 226,-438 226,-403.55 226,-403.55"/>
<polygon fill="#6b7280" stroke="#6b7280" stroke-width="0.9" points="228.28,-403.55 226,-397.05 223.73,-403.55 228.28,-403.55"/>
</g>
<!-- d25ff982940c4a72ae4f0e922defb9b1&#45;&gt;6acdcf01dba34ed48d579c4470391e3e -->
<g id="edge10" class="edge">
<title>d25ff982940c4a72ae4f0e922defb9b1&#45;&gt;6acdcf01dba34ed48d579c4470391e3e</title>
<path fill="none" stroke="#6b7280" stroke-width="0.9" d="M178.12,-741C205.38,-741 241,-741 241,-741 241,-741 241,-403.59 241,-403.59"/>
<polygon fill="#6b7280" stroke="#6b7280" stroke-width="0.9" points="243.28,-403.59 241,-397.09 238.73,-403.59 243.28,-403.59"/>
</g>
<!-- 02d429e886304ec9afe64cd3af285328&#45;&gt;6acdcf01dba34ed48d579c4470391e3e -->
<g id="edge1" class="edge">
<title>02d429e886304ec9afe64cd3af285328&#45;&gt;6acdcf01dba34ed48d579c4470391e3e</title>
<path fill="none" stroke="#6b7280" stroke-width="0.9" d="M178.21,-314C178.21,-314 203.32,-314 203.32,-314"/>
<polygon fill="#6b7280" stroke="#6b7280" stroke-width="0.9" points="203.32,-316.28 209.82,-314 203.32,-311.73 203.32,-316.28"/>
</g>
<!-- 87dbac5750974e3ba6b925c824fe9cea&#45;&gt;6acdcf01dba34ed48d579c4470391e3e -->
<g id="edge11" class="edge">
<title>87dbac5750974e3ba6b925c824fe9cea&#45;&gt;6acdcf01dba34ed48d579c4470391e3e</title>
<path fill="none" stroke="#6b7280" stroke-width="0.9" d="M178.12,-135C205.38,-135 241,-135 241,-135 241,-135 241,-224.29 241,-224.29"/>
<polygon fill="#6b7280" stroke="#6b7280" stroke-width="0.9" points="238.73,-224.29 241,-230.79 243.28,-224.29 238.73,-224.29"/>
</g>
<!-- 1972d377d3ff4abba5d9b33fb031ee24 -->
<g id="node1" class="node">
<title>1972d377d3ff4abba5d9b33fb031ee24</title>
<image xlink:href="/home/suryakumaran/GitHub/auto-arch-diagram/.venv/lib/python3.12/site-packages/resources/aws/storage/simple-storage-service-s3.png" width="61px" height="61px" preserveAspectRatio="xMinYMin meet" x="24" y="-1039.5"/>
<text text-anchor="middle" x="54.5" y="-938.8" font-family="Helvetica,sans-Serif" font-size="9.00" fill="#2d3436">S3 Bucket</text>
<text text-anchor="middle" x="54.5" y="-928.8" font-family="Helvetica,sans-Serif" font-size="9.00" fill="#2d3436">logs</text>
</g>
<!-- 83e0662f0cb843bd90b189b1ae2b5785 -->
<g id="node2" class="node">
<title>83e0662f0cb843bd90b189b1ae2b5785</title>
<image xlink:href="/home/suryakumaran/GitHub/auto-arch-diagram/.venv/lib/python3.12/site-packages/resources/aws/storage/simple-storage-service-s3.png" width="61px" height="61px" preserveAspectRatio="xMinYMin meet" x="24" y="-771.5"/>
<text text-anchor="middle" x="54.5" y="-670.8" font-family="Helvetica,sans-Serif" font-size="9.00" fill="#2d3436">S3 Bucket</text>
<text text-anchor="middle" x="54.5" y="-660.8" font-family="Helvetica,sans-Serif" font-size="9.00" fill="#2d3436">site</text>
</g>
<!-- d2b68c1d9ab64a65bddea1a860d2148a -->
<g id="node3" class="node">
<title>d2b68c1d9ab64a65bddea1a860d2148a</title>
<image xlink:href="/home/suryakumaran/GitHub/auto-arch-diagram/.venv/lib/python3.12/site-packages/resources/aws/general/general.png" width="61px" height="61px" preserveAspectRatio="xMinYMin meet" x="117" y="-1129.5"/>
<text text-anchor="middle" x="147.5" y="-1028.8" font-family="Helvetica,sans-Serif" font-size="9.00" fill="#2d3436">S3 Bucket…</text>
<text text-anchor="middle" x="147.5" y="-1018.8" font-family="Helvetica,sans-Serif" font-size="9.00" fill="#2d3436">site</text>
</g>
<!-- d25ff982940c4a72ae4f0e922defb9b1 -->
<g id="node4" class="node">
<title>d25ff982940c4a72ae4f0e922defb9b1</title>
<image xlink:href="/home/suryakumaran/GitHub/auto-arch-diagram/.venv/lib/python3.12/site-packages/resources/aws/general/general.png" width="61px" height="61px" preserveAspectRatio="xMinYMin meet" x="117" y="-771.5"/>
<text text-anchor="middle" x="147.5" y="-670.8" font-family="Helvetica,sans-Serif" font-size="9.00" fill="#2d3436">S3 Bucket…</text>
<text text-anchor="middle" x="147.5" y="-660.8" font-family="Helvetica,sans-Serif" font-size="9.00" fill="#2d3436">site</text>
</g>
<!-- 1cfb5455e6bb40059b57ee753571d896 -->
<g id="node5" class="node">
<title>1cfb5455e6bb40059b57ee753571d896</title>
<image xlink:href="/home/suryakumaran/GitHub/auto-arch-diagram/.venv/lib/python3.12/site-packages/resources/aws/general/general.png" width="61px" height="61px" preserveAspectRatio="xMinYMin meet" x="117" y="-1308.5"/>
<text text-anchor="middle" x="147.5" y="-1207.8" font-family="Helvetica,sans-Serif" font-size="9.00" fill="#2d3436">S3 Bucket…</text>
<text text-anchor="middle" x="147.5" y="-1197.8" font-family="Helvetica,sans-Serif" font-size="9.00" fill="#2d3436">logs</text>
</g>
<!-- 767f6d528e144d51845b070c75cf21f5 -->
<g id="node6" class="node">
<title>767f6d528e144d51845b070c75cf21f5</title>
<image xlink:href="/home/suryakumaran/GitHub/auto-arch-diagram/.venv/lib/python3.12/site-packages/resources/aws/general/general.png" width="61px" height="61px" preserveAspectRatio="xMinYMin meet" x="117" y="-950.5"/>
<text text-anchor="middle" x="147.5" y="-849.8" font-family="Helvetica,sans-Serif" font-size="9.00" fill="#2d3436">S3 Bucket…</text>
<text text-anchor="middle" x="147.5" y="-839.8" font-family="Helvetica,sans-Serif" font-size="9.00" fill="#2d3436">site</text>
</g>
<!-- 749e1c46f7934cb088bf528c9c772307 -->
<g id="node7" class="node">
<title>749e1c46f7934cb088bf528c9c772307</title>
<image xlink:href="/home/suryakumaran/GitHub/auto-arch-diagram/.venv/lib/python3.12/site-packages/resources/aws/general/general.png" width="61px" height="61px" preserveAspectRatio="xMinYMin meet" x="117" y="-592.5"/>
<text text-anchor="middle" x="147.5" y="-491.8" font-family="Helvetica,sans-Serif" font-size="9.00" fill="#2d3436">S3 Bucket…</text>
<text text-anchor="middle" x="147.5" y="-481.8" font-family="Helvetica,sans-Serif" font-size="9.00" fill="#2d3436">site</text>
</g>
<!-- 6acdcf01dba34ed48d579c4470391e3e -->
<g id="node8" class="node">
<title>6acdcf01dba34ed48d579c4470391e3e</title>
<image xlink:href="/home/suryakumaran/GitHub/auto-arch-diagram/.venv/lib/python3.12/site-packages/resources/aws/network/cloudfront.png" width="61px" height="61px" preserveAspectRatio="xMinYMin meet" x="210" y="-344.5"/>
<text text-anchor="middle" x="240.5" y="-243.8" font-family="Helvetica,sans-Serif" font-size="9.00" fill="#2d3436">Cloudfront…</text>
<text text-anchor="middle" x="240.5" y="-233.8" font-family="Helvetica,sans-Serif" font-size="9.00" fill="#2d3436">cdn</text>
</g>
<!-- 02d429e886304ec9afe64cd3af285328 -->
<g id="node9" class="node">
<title>02d429e886304ec9afe64cd3af285328</title>
<image xlink:href="/home/suryakumaran/GitHub/auto-arch-diagram/.venv/lib/python3.12/site-packages/resources/aws/general/general.png" width="61px" height="61px" preserveAspectRatio="xMinYMin meet" x="117" y="-344.5"/>
<text text-anchor="middle" x="147.5" y="-243.8" font-family="Helvetica,sans-Serif" font-size="9.00" fill="#2d3436">Cloudfront…</text>
<text text-anchor="middle" x="147.5" y="-233.8" font-family="Helvetica,sans-Serif" font-size="9.00" fill="#2d3436">oac</text>
</g>
<!-- 87dbac5750974e3ba6b925c824fe9cea -->
<g id="node10" class="node">
<title>87dbac5750974e3ba6b925c824fe9cea</title>
<image xlink:href="/home/suryakumaran/GitHub/auto-arch-diagram/.venv/lib/python3.12/site-packages/resources/aws/general/general.png" width="61px" height="61px" preserveAspectRatio="xMinYMin meet" x="117" y="-165.5"/>
<text text-anchor="middle" x="147.5" y="-64.8" font-family="Helvetica,sans-Serif" font-size="9.00" fill="#2d3436">Wafv2 Web Acl</text>
<text text-anchor="middle" x="147.5" y="-54.8" font-family="Helvetica,sans-Serif" font-size="9.00" fill="#2d3436">cdn</text>
</g>
</g>
</svg>
