<?xml version="1.0" encoding="UTF-8" standalone="no"?>
<!DOCTYPE svg PUBLIC "-//W3C//DTD SVG 1.1//EN"
 "http://www.w3.org/Graphics/SVG/1.1/DTD/svg11.dtd">
<!-- Generated by graphviz version 2.43.0 (0)
 -->
<!-- Title: Architecture (Terraform) Pages: 1 -->
<svg width="332pt" height="561pt"
 viewBox="0.00 0.00 331.80 560.80" xmlns="http://www.w3.org/2000/svg" xmlns:xlink="http://www.w3.org/1999/xlink">
<g id="graph0" class="graph" transform="scale(1 1) rotate(0) translate(14.4 546.4)">
<title>Architecture (Terraform)</title>
<text text-anchor="middle" x="151.5" y="-9.6" font-family="Helvetica,sans-Serif" font-size="18.00" fill="#2d3436">Architecture (Terraform)</text>
<g id="clust1" class="cluster">
<title>cluster_Network</title>
<path fill="#e5f5fd" stroke="#aeb6be" d="M20,-284C20,-284 182,-284 182,-284 188,-284 194,-290 194,-296 194,-296 194,-512 194,-512 194,-518 188,-524 182,-524 182,-524 20,-524 20,-524 14,-524 8,-518 8,-512 8,-512 8,-296 8,-296 8,-290 14,-284 20,-284"/>
<text text-anchor="middle" x="41.5" y="-510.4" font-family="Sans-Serif" font-size="12.00" fill="#2d3436">Network</text>
</g>
<g id="clust2" class="cluster">
<title>cluster_AWS</title>
<path fill="#ebf3e7" stroke="#aeb6be" d="M28,-292C28,-292 174,-292 174,-292 180,-292 186,-298 186,-304 186,-304 186,-483 186,-483 186,-489 180,-495 174,-495 174,-495 28,-495 28,-495 22,-495 16,-489 16,-483 16,-483 16,-304 16,-304 16,-298 22,-292 28,-292"/>
<text text-anchor="middle" x="38" y="-481.4" font-family="Sans-Serif" font-size="12.00" fill="#2d3436">AWS</text>
</g>
<g id="clust3" class="cluster">
<title>cluster_Security</title>
<path fill="#e5f5fd" stroke="#aeb6be" d="M113,-36C113,-36 182,-36 182,-36 188,-36 194,-42 194,-48 194,-48 194,-264 194,-264 194,-270 188,-276 182,-276 182,-276 113,-276 113,-276 107,-276 101,-270 101,-264 101,-264 101,-48 101,-48 101,-42 107,-36 113,-36"/>
<text text-anchor="middle" x="133.5" y="-262.4" font-family="Sans-Serif" font-size="12.00" fill="#2d3436">Security</text>
</g>
<g id="clust4" class="cluster">
<title>cluster_AWS</title>
<path fill="#ebf3e7" stroke="#aeb6be" d="M121,-44C121,-44 174,-44 174,-44 180,-44 186,-50 186,-56 186,-56 186,-235 186,-235 186,-241 180,-247 174,-247 174,-247 121,-247 121,-247 115,-247 109,-241 109,-235 109,-235 109,-56 109,-56 109,-50 115,-44 121,-44"/>
<text text-anchor="middle" x="131" y="-233.4" font-family="Sans-Serif" font-size="12.00" fill="#2d3436">AWS</text>
</g>
<g id="clust5" class="cluster">
<title>cluster_Compute</title>
<path fill="#e5f5fd" stroke="#aeb6be" d="M214,-160C214,-160 283,-160 283,-160 289,-160 295,-166 295,-172 295,-172 295,-388 295,-388 295,-394 289,-400 283,-400 283,-400 214,-400 214,-400 208,-400 202,-394 202,-388 202,-388 202,-172 202,-172 202,-166 208,-160 214,-160"/>
<text text-anchor="middle" x="237.5" y="-386.4" font-family="Sans-Serif" font-size="12.00" fill="#2d3436">Compute</text>
</g>
<g id="clust6" class="cluster">
<title>cluster_AWS</title>
<path fill="#ebf3e7" stroke="#aeb6be" d="M222,-168C222,-168 275,-168 275,-168 281,-168 287,-174 287,-180 287,-180 287,-359 287,-359 287,-365 281,-371 275,-371 275,-371 222,-371 222,-371 216,-371 210,-365 210,-359 210,-359 210,-180 210,-180 210,-174 216,-168 222,-168"/>
<text text-anchor="middle" x="232" y="-357.4" font-family="Sans-Serif" font-size="12.00" fill="#2d3436">AWS</text>
</g>
<!-- c882f6b3cd0b439e8c753beb804393ae&#45;&gt;227c8993257640ecb315fce509d07752 -->
<g id="edge2" class="edge">
<title>c882f6b3cd0b439e8c753beb804393ae&#45;&gt;227c8993257640ecb315fce509d07752</title>
<path fill="none" stroke="#6b7280" stroke-width="0.9" d="M178.08,-321C178.08,-321 211.18,-321 211.18,-321"/>
<polygon fill="#6b7280" stroke="#6b7280" stroke-width="0.9" points="211.18,-323.28 217.68,-321 211.18,-318.73 211.18,-323.28"/>
</g>
<!-- 14c32f34e315477fb1a3de7c1cd62446&#45;&gt;c882f6b3cd0b439e8c753beb804393ae -->
<g id="edge4" class="edge">
<title>14c32f34e315477fb1a3de7c1cd62446&#45;&gt;c882f6b3cd0b439e8c753beb804393ae</title>
<path fill="none" stroke="#6b7280" stroke-width="0.9" d="M85.21,-383C85.21,-383 110.32,-383 110.32,-383"/>
<polygon fill="#6b7280" stroke="#6b7280" stroke-width="0.9" points="110.32,-385.28 116.82,-383 110.32,-380.73 110.32,-385.28"/>
</g>
<!-- 14c32f34e315477fb1a3de7c1cd62446&#45;&gt;7191abccce25459682377322de4ef0c4 -->
<g id="edge3" class="edge">
<title>14c32f34e315477fb1a3de7c1cd62446&#45;&gt;7191abccce25459682377322de4ef0c4</title>
<path fill="none" stroke="#6b7280" stroke-width="0.9" d="M55,-299.73C55,-227.68 55,-135 55,-135 55,-135 110.46,-135 110.46,-135"/>
<polygon fill="#6b7280" stroke="#6b7280" stroke-width="0.9" points="110.46,-137.28 116.96,-135 110.46,-132.73 110.46,-137.28"/>
</g>
<!-- 7191abccce25459682377322de4ef0c4&#45;&gt;227c8993257640ecb315fce509d07752 -->
<g id="edge1" class="edge">
<title>7191abccce25459682377322de4ef0c4&#45;&gt;227c8993257640ecb315fce509d07752</title>
<path fill="none" stroke="#6b7280" stroke-width="0.9" d="M178.08,-197C178.08,-197 211.18,-197 211.18,-197"/>
<polygon fill="#6b7280" stroke="#6b7280" stroke-width="0.9" points="211.18,-199.28 217.68,-197 211.18,-194.73 211.18,-199.28"/>
</g>
<!-- c882f6b3cd0b439e8c753beb804393ae -->
<g id="node1" class="node">
<title>c882f6b3cd0b439e8c753beb804393ae</title>
<image xlink:href="/home/suryakumaran/GitHub/auto-arch-diagram/.venv/lib/python3.12/site-packages/resources/aws/network/private-subnet.png" width="61px" height="61px" preserveAspectRatio="xMinYMin meet" x="117" y="-413.5"/>
<text text-anchor="middle" x="147.5" y="-312.8" font-family="Helvetica,sans-Serif" font-size="9.00" fill="#2d3436">Subnet</text>
<text text-anchor="middle" x="147.5" y="-302.8" font-family="Helvetica,sans-Serif" font-size="9.00" fill="#2d3436">public</text>
</g>
<!-- 14c32f34e315477fb1a3de7c1cd62446 -->
<g id="node2" class="node">
<title>14c32f34e315477fb1a3de7c1cd62446</title>
<image xlink:href="/home/suryakumaran/GitHub/auto-arch-diagram/.venv/lib/python3.12/site-packages/resources/aws/network/vpc.png" width="61px" height="61px" preserveAspectRatio="xMinYMin meet" x="24" y="-413.5"/>
<text text-anchor="middle" x="54.5" y="-312.8" font-family="Helvetica,sans-Serif" font-size="9.00" fill="#2d3436">VPC</text>
<text text-anchor="middle" x="54.5" y="-302.8" font-family="Helvetica,sans-Serif" font-size="9.00" fill="#2d3436">main</text>
</g>
<!-- 7191abccce25459682377322de4ef0c4 -->
<g id="node3" class="node">
<title>7191abccce25459682377322de4ef0c4</title>
<image xlink:href="/home/suryakumaran/GitHub/auto-arch-diagram/.venv/lib/python3.12/site-packages/resources/generic/compute/rack.png" width="61px" height="61px" preserveAspectRatio="xMinYMin meet" x="117" y="-165.5"/>
<text text-anchor="middle" x="147.5" y="-64.8" font-family="Helvetica,sans-Serif" font-size="9.00" fill="#2d3436">Security Group</text>
<text text-anchor="middle" x="147.5" y="-54.8" font-family="Helvetica,sans-Serif" font-size="9.00" fill="#2d3436">web</text>
</g>
<!-- 227c8993257640ecb315fce509d07752 -->
<g id="node4" class="node">
<title>227c8993257640ecb315fce509d07752</title>
<image xlink:href="/home/suryakumaran/GitHub/auto-arch-diagram/.venv/lib/python3.12/site-packages/resources/aws/compute/ec2.png" width="61px" height="61px" preserveAspectRatio="xMinYMin meet" x="218" y="-289.5"/>
<text text-anchor="middle" x="248.5" y="-188.8" font-family="Helvetica,sans-Serif" font-size="9.00" fill="#2d3436">Instance</text>
<text text-anchor="middle" x="248.5" y="-178.8" font-family="Helvetica,sans-Serif" font-size="9.00" fill="#2d3436">web</text>
</g>
</g>
</svg>
