<?xml version="1.0" encoding="UTF-8" standalone="no"?>
<!DOCTYPE svg PUBLIC "-//W3C//DTD SVG 1.1//EN"
 "http://www.w3.org/Graphics/SVG/1.1/DTD/svg11.dtd">
<!-- Generated by graphviz version 2.43.0 (0)
 -->
<!-- Title: Architecture (Terraform) Pages: 1 -->
<svg width="417pt" height="576pt"
 viewBox="0.00 0.00 416.80 575.80" xmlns="http://www.w3.org/2000/svg" xmlns:xlink="http://www.w3.org/1999/xlink">
<g id="graph0" class="graph" transform="scale(1 1) rotate(0) translate(14.4 561.4)">
<title>Architecture (Terraform)</title>
<text text-anchor="middle" x="194" y="-9.6" font-family="Helvetica,sans-Serif" font-size="18.00" fill="#2d3436">Architecture (Terraform)</text>
<g id="clust1" class="cluster">
<title>cluster_Storage</title>
<path fill="#e5f5fd" stroke="#aeb6be" d="M206,-36C206,-36 275,-36 275,-36 281,-36 287,-42 287,-48 287,-48 287,-264 287,-264 287,-270 281,-276 275,-276 275,-276 206,-276 206,-276 200,-276 194,-270 194,-264 194,-264 194,-48 194,-48 194,-42 200,-36 206,-36"/>
<text text-anchor="middle" x="226" y="-262.4" font-family="Sans-Serif" font-size="12.00" fill="#2d3436">Storage</text>
</g>
<g id="clust2" class="cluster">
<title>cluster_Azure</title>
<path fill="#ebf3e7" stroke="#aeb6be" d="M214,-44C214,-44 267,-44 267,-44 273,-44 279,-50 279,-56 279,-56 279,-235 279,-235 279,-241 273,-247 267,-247 267,-247 214,-247 214,-247 208,-247 202,-241 202,-235 202,-235 202,-56 202,-56 202,-50 208,-44 214,-44"/>
<text text-anchor="middle" x="227" y="-233.4" font-family="Sans-Serif" font-size="12.00" fill="#2d3436">Azure</text>
</g>
<g id="clust3" class="cluster">
<title>cluster_Other</title>
<path fill="#e5f5fd" stroke="#aeb6be" d="M20,-284C20,-284 368,-284 368,-284 374,-284 380,-290 380,-296 380,-296 380,-527 380,-527 380,-533 374,-539 368,-539 368,-539 20,-539 20,-539 14,-539 8,-533 8,-527 8,-527 8,-296 8,-296 8,-290 14,-284 20,-284"/>
<text text-anchor="middle" x="33.5" y="-525.4" font-family="Sans-Serif" font-size="12.00" fill="#2d3436">Other</text>
</g>
<g id="clust4" class="cluster">
<title>cluster_Azure</title>
<path fill="#ebf3e7" stroke="#aeb6be" d="M121,-292C121,-292 360,-292 360,-292 366,-292 372,-298 372,-304 372,-304 372,-498 372,-498 372,-504 366,-510 360,-510 360,-510 121,-510 121,-510 115,-510 109,-504 109,-498 109,-498 109,-304 109,-304 109,-298 115,-292 121,-292"/>
<text text-anchor="middle" x="134" y="-496.4" font-family="Sans-Serif" font-size="12.00" fill="#2d3436">Azure</text>
</g>
<g id="clust5" class="cluster">
<title>cluster_RANDOM</title>
<path fill="#ebf3e7" stroke="#aeb6be" d="M28,-292C28,-292 81,-292 81,-292 87,-292 93,-298 93,-304 93,-304 93,-483 93,-483 93,-489 87,-495 81,-495 81,-495 28,-495 28,-495 22,-495 16,-489 16,-483 16,-483 16,-304 16,-304 16,-298 22,-292 28,-292"/>
<text text-anchor="middle" x="51.5" y="-481.4" font-family="Sans-Serif" font-size="12.00" fill="#2d3436">RANDOM</text>
</g>
<!-- 16970833bcee4ebfbaca0b7aae054072&#45;&gt;427b5e3d8c2c472d940c56d36527a46a -->
<g id="edge5" class="edge">
<title>16970833bcee4ebfbaca0b7aae054072&#45;&gt;427b5e3d8c2c472d940c56d36527a46a</title>
<path fill="none" stroke="#6b7280" stroke-width="0.9" d="M251,-218.22C251,-262.33 251,-307.5 251,-307.5 251,-307.5 296.28,-307.5 296.28,-307.5"/>
<polygon fill="#6b7280" stroke="#6b7280" stroke-width="0.9" points="296.28,-309.78 302.78,-307.5 296.28,-305.23 296.28,-309.78"/>
</g>
<!-- 800f5f28c8ab4347a1647b26c6f980f5&#45;&gt;427b5e3d8c2c472d940c56d36527a46a -->
<g id="edge1" class="edge">
<title>800f5f28c8ab4347a1647b26c6f980f5&#45;&gt;427b5e3d8c2c472d940c56d36527a46a</title>
<path fill="none" stroke="#6b7280" stroke-width="0.9" d="M271.21,-390.5C271.21,-390.5 296.32,-390.5 296.32,-390.5"/>
<polygon fill="#6b7280" stroke="#6b7280" stroke-width="0.9" points="296.32,-392.78 302.82,-390.5 296.32,-388.23 296.32,-392.78"/>
</g>
<!-- 890ff4012bf24bfd9f6a3602a17b837e&#45;&gt;16970833bcee4ebfbaca0b7aae054072 -->
<g id="edge4" class="edge">
<title>890ff4012bf24bfd9f6a3602a17b837e&#45;&gt;16970833bcee4ebfbaca0b7aae054072</title>
<path fill="none" stroke="#6b7280" stroke-width="0.9" d="M178.12,-303.75C201.95,-303.75 231,-303.75 231,-303.75 231,-303.75 231,-224.89 231,-224.89"/>
<polygon fill="#6b7280" stroke="#6b7280" stroke-width="0.9" points="233.28,-224.89 231,-218.39 228.73,-224.89 233.28,-224.89"/>
</g>
<!-- 890ff4012bf24bfd9f6a3602a17b837e&#45;&gt;427b5e3d8c2c472d940c56d36527a46a -->
<g id="edge2" class="edge">
<title>890ff4012bf24bfd9f6a3602a17b837e&#45;&gt;427b5e3d8c2c472d940c56d36527a46a</title>
<path fill="none" stroke="#6b7280" stroke-width="0.9" d="M178.21,-311.25C178.21,-311.25 296.24,-311.25 296.24,-311.25"/>
<polygon fill="#6b7280" stroke="#6b7280" stroke-width="0.9" points="296.24,-313.53 302.74,-311.25 296.24,-308.98 296.24,-313.53"/>
</g>
<!-- 890ff4012bf24bfd9f6a3602a17b837e&#45;&gt;800f5f28c8ab4347a1647b26c6f980f5 -->
<g id="edge3" class="edge">
<title>890ff4012bf24bfd9f6a3602a17b837e&#45;&gt;800f5f28c8ab4347a1647b26c6f980f5</title>
<path fill="none" stroke="#6b7280" stroke-width="0.9" d="M178.21,-390.5C178.21,-390.5 203.32,-390.5 203.32,-390.5"/>
<polygon fill="#6b7280" stroke="#6b7280" stroke-width="0.9" points="203.32,-392.78 209.82,-390.5 203.32,-388.23 203.32,-392.78"/>
</g>
<!-- f0bec7f9446f437699e92593246eaf7f&#45;&gt;16970833bcee4ebfbaca0b7aae054072 -->
<g id="edge9" class="edge">
<title>f0bec7f9446f437699e92593246eaf7f&#45;&gt;16970833bcee4ebfbaca0b7aae054072</title>
<path fill="none" stroke="#6b7280" stroke-width="0.9" d="M55,-299.73C55,-227.68 55,-135 55,-135 55,-135 203.37,-135 203.37,-135"/>
<polygon fill="#6b7280" stroke="#6b7280" stroke-width="0.9" points="203.37,-137.28 209.87,-135 203.37,-132.73 203.37,-137.28"/>
</g>
<!-- f0bec7f9446f437699e92593246eaf7f&#45;&gt;427b5e3d8c2c472d940c56d36527a46a -->
<g id="edge6" class="edge">
<title>f0bec7f9446f437699e92593246eaf7f&#45;&gt;427b5e3d8c2c472d940c56d36527a46a</title>
<path fill="none" stroke="#6b7280" stroke-width="0.9" d="M45,-466.07C45,-484.66 45,-499 45,-499 45,-499 334,-499 334,-499 334,-499 334,-472.57 334,-472.57"/>
<polygon fill="#6b7280" stroke="#6b7280" stroke-width="0.9" points="336.28,-472.57 334,-466.07 331.73,-472.57 336.28,-472.57"/>
</g>
<!-- f0bec7f9446f437699e92593246eaf7f&#45;&gt;800f5f28c8ab4347a1647b26c6f980f5 -->
<g id="edge7" class="edge">
<title>f0bec7f9446f437699e92593246eaf7f&#45;&gt;800f5f28c8ab4347a1647b26c6f980f5</title>
<path fill="none" stroke="#6b7280" stroke-width="0.9" d="M65,-466.09C65,-470.7 65,-473.5 65,-473.5 65,-473.5 203.43,-473.5 203.43,-473.5"/>
<polygon fill="#6b7280" stroke="#6b7280" stroke-width="0.9" points="203.43,-475.78 209.93,-473.5 203.43,-471.23 203.43,-475.78"/>
</g>
<!-- f0bec7f9446f437699e92593246eaf7f&#45;&gt;890ff4012bf24bfd9f6a3602a17b837e -->
<g id="edge8" class="edge">
<title>f0bec7f9446f437699e92593246eaf7f&#45;&gt;890ff4012bf24bfd9f6a3602a17b837e</title>
<path fill="none" stroke="#6b7280" stroke-width="0.9" d="M85.21,-383C85.21,-383 110.32,-383 110.32,-383"/>
<polygon fill="#6b7280" stroke="#6b7280" stroke-width="0.9" points="110.32,-385.28 116.82,-383 110.32,-380.73 110.32,-385.28"/>
</g>
<!-- 16970833bcee4ebfbaca0b7aae054072 -->
<g id="node1" class="node">
<title>16970833bcee4ebfbaca0b7aae054072</title>
<image xlink:href="/home/suryakumaran/GitHub/auto-arch-diagram/.venv/lib/python3.12/site-packages/resources/azure/storage/storage-accounts.png" width="61px" height="61px" preserveAspectRatio="xMinYMin meet" x="210" y="-165.5"/>
<text text-anchor="middle" x="240.5" y="-64.8" font-family="Helvetica,sans-Serif" font-size="9.00" fill="#2d3436">Storage…</text>
<text text-anchor="middle" x="240.5" y="-54.8" font-family="Helvetica,sans-Serif" font-size="9.00" fill="#2d3436">site</text>
</g>
<!-- 427b5e3d8c2c472d940c56d36527a46a -->
<g id="node2" class="node">
<title>427b5e3d8c2c472d940c56d36527a46a</title>
<image xlink:href="/home/suryakumaran/GitHub/auto-arch-diagram/.venv/lib/python3.12/site-packages/resources/generic/compute/rack.png" width="61px" height="61px" preserveAspectRatio="xMinYMin meet" x="303" y="-413.5"/>
<text text-anchor="middle" x="333.5" y="-312.8" font-family="Helvetica,sans-Serif" font-size="9.00" fill="#2d3436">Cdn Endpoint</text>
<text text-anchor="middle" x="333.5" y="-302.8" font-family="Helvetica,sans-Serif" font-size="9.00" fill="#2d3436">endpoint</text>
</g>
<!-- 800f5f28c8ab4347a1647b26c6f980f5 -->
<g id="node3" class="node">
<title>800f5f28c8ab4347a1647b26c6f980f5</title>
<image xlink:href="/home/suryakumaran/GitHub/auto-arch-diagram/.venv/lib/python3.12/site-packages/resources/generic/compute/rack.png" width="61px" height="61px" preserveAspectRatio="xMinYMin meet" x="210" y="-428.5"/>
<text text-anchor="middle" x="240.5" y="-327.8" font-family="Helvetica,sans-Serif" font-size="9.00" fill="#2d3436">Cdn Profile</text>
<text text-anchor="middle" x="240.5" y="-317.8" font-family="Helvetica,sans-Serif" font-size="9.00" fill="#2d3436">cdn</text>
</g>
<!-- 890ff4012bf24bfd9f6a3602a17b837e -->
<g id="node4" class="node">
<title>890ff4012bf24bfd9f6a3602a17b837e</title>
<image xlink:href="/home/suryakumaran/GitHub/auto-arch-diagram/.venv/lib/python3.12/site-packages/resources/azure/general/resourcegroups.png" width="61px" height="61px" preserveAspectRatio="xMinYMin meet" x="117" y="-413.5"/>
<text text-anchor="middle" x="147.5" y="-312.8" font-family="Helvetica,sans-Serif" font-size="9.00" fill="#2d3436">Resource Group</text>
<text text-anchor="middle" x="147.5" y="-302.8" font-family="Helvetica,sans-Serif" font-size="9.00" fill="#2d3436">rg</text>
</g>
<!-- f0bec7f9446f437699e92593246eaf7f -->
<g id="node5" class="node">
<title>f0bec7f9446f437699e92593246eaf7f</title>
<image xlink:href="/home/suryakumaran/GitHub/auto-arch-diagram/.venv/lib/python3.12/site-packages/resources/generic/compute/rack.png" width="61px" height="61px" preserveAspectRatio="xMinYMin meet" x="24" y="-413.5"/>
<text text-anchor="middle" x="54.5" y="-312.8" font-family="Helvetica,sans-Serif" font-size="9.00" fill="#2d3436">Random String</text>
<text text-anchor="middle" x="54.5" y="-302.8" font-family="Helvetica,sans-Serif" font-size="9.00" fill="#2d3436">suffix</text>
</g>
</g>
</svg>
