<?xml version="1.0" encoding="UTF-8" standalone="no"?>
<!DOCTYPE svg PUBLIC "-//W3C//DTD SVG 1.1//EN"
 "http://www.w3.org/Graphics/SVG/1.1/DTD/svg11.dtd">
<!-- Generated by graphviz version 2.43.0 (0)
 -->
<!-- Title: Architecture (Terraform) Pages: 1 -->
<svg width="260pt" height="313pt"
 viewBox="0.00 0.00 259.80 312.80" xmlns="http://www.w3.org/2000/svg" xmlns:xlink="http://www.w3.org/1999/xlink">
<g id="graph0" class="graph" transform="scale(1 1) rotate(0) translate(14.4 298.4)">
<title>Architecture (Terraform)</title>
<text text-anchor="middle" x="115.5" y="-9.6" font-family="Helvetica,sans-Serif" font-size="18.00" fill="#2d3436">Architecture (Terraform)</text>
<g id="clust1" class="cluster">
<title>cluster_Storage</title>
<path fill="#e5f5fd" stroke="#aeb6be" d="M81,-36C81,-36 150,-36 150,-36 156,-36 162,-42 162,-48 162,-48 162,-264 162,-264 162,-270 156,-276 150,-276 150,-276 81,-276 81,-276 75,-276 69,-270 69,-264 69,-264 69,-48 69,-48 69,-42 75,-36 81,-36"/>
<text text-anchor="middle" x="101" y="-262.4" font-family="Sans-Serif" font-size="12.00" fill="#2d3436">Storage</text>
</g>
<g id="clust2" class="cluster">
<title>cluster_OCI</title>
<path fill="#ebf3e7" stroke="#aeb6be" d="M89,-44C89,-44 142,-44 142,-44 148,-44 154,-50 154,-56 154,-56 154,-235 154,-235 154,-241 148,-247 142,-247 142,-247 89,-247 89,-247 83,-247 77,-241 77,-235 77,-235 77,-56 77,-56 77,-50 83,-44 89,-44"/>
<text text-anchor="middle" x="96" y="-233.4" font-family="Sans-Serif" font-size="12.00" fill="#2d3436">OCI</text>
</g>
<!-- 49d8fe822ad54a0ea4219d824f0f4d5a -->
<g id="node1" class="node">
<title>49d8fe822ad54a0ea4219d824f0f4d5a</title>
<image xlink:href="/home/suryakumaran/GitHub/auto-arch-diagram/.venv/lib/python3.12/site-packages/resources/generic/compute/rack.png" width="61px" height="61px" preserveAspectRatio="xMinYMin meet" x="85" y="-165.5"/>
<text text-anchor="middle" x="115.5" y="-64.8" font-family="Helvetica,sans-Serif" font-size="9.00" fill="#2d3436">Objectstorage…</text>
<text text-anchor="middle" x="115.5" y="-54.8" font-family="Helvetica,sans-Serif" font-size="9.00" fill="#2d3436">site</text>
</g>
</g>
</svg>
