<?xml version="1.0" encoding="UTF-8" standalone="no"?>
<!DOCTYPE svg PUBLIC "-//W3C//DTD SVG 1.1//EN"
 "http://www.w3.org/Graphics/SVG/1.1/DTD/svg11.dtd">
<!-- Generated by graphviz version 2.43.0 (0)
 -->
<!-- Title: Architecture (Terraform) Pages: 1 -->
<svg width="193pt" height="229pt"
 viewBox="0.00 0.00 193.24 229.24" xmlns="http://www.w3.org/2000/svg" xmlns:xlink="http://www.w3.org/1999/xlink">
<g id="graph0" class="graph" transform="scale(1 1) rotate(0) translate(15.12 214.12)">
<title>Architecture (Terraform)</title>
<text text-anchor="middle" x="81.5" y="-185.4" font-family="Open Sans Bold" font-size="12.00" fill="#2d3436">Architecture (Terraform)</text>
<g id="clust1" class="cluster">
<title>cluster_Storage</title>
<path fill="#cccccc" stroke="#aeb6be" d="M44.5,-8C44.5,-8 119.5,-8 119.5,-8 125.5,-8 131.5,-14 131.5,-20 131.5,-20 131.5,-158 131.5,-158 131.5,-164 125.5,-170 119.5,-170 119.5,-170 44.5,-170 44.5,-170 38.5,-170 32.5,-164 32.5,-158 32.5,-158 32.5,-20 32.5,-20 32.5,-14 38.5,-8 44.5,-8"/>
<text text-anchor="middle" x="72" y="-154.8" font-family="Helvetica,sans-Serif" font-weight="bold" font-size="14.00" fill="#2d3436">Storage</text>
</g>
<g id="clust2" class="cluster">
<title>cluster_OCI Cloud</title>
<path fill="#ffcccc" stroke="#aeb6be" stroke-width="2.5" d="M52.5,-16C52.5,-16 111.5,-16 111.5,-16 117.5,-16 123.5,-22 123.5,-28 123.5,-28 123.5,-127 123.5,-127 123.5,-133 117.5,-139 111.5,-139 111.5,-139 52.5,-139 52.5,-139 46.5,-139 40.5,-133 40.5,-127 40.5,-127 40.5,-28 40.5,-28 40.5,-22 46.5,-16 52.5,-16"/>
<text text-anchor="middle" x="82" y="-125.4" font-family="Helvetica,sans-Serif" font-weight="bold" font-size="12.00" fill="#2d3436">OCI Cloud</text>
</g>
<!-- 89bb31d2f4504e6ca4f32eca29731ad9 -->
<g id="node1" class="node">
<title>89bb31d2f4504e6ca4f32eca29731ad9</title>
<path fill="none" stroke="black" d="M98.5,-110C98.5,-110 64.5,-110 64.5,-110 58.5,-110 52.5,-104 52.5,-98 52.5,-98 52.5,-36 52.5,-36 52.5,-30 58.5,-24 64.5,-24 64.5,-24 98.5,-24 98.5,-24 104.5,-24 110.5,-30 110.5,-36 110.5,-36 110.5,-98 110.5,-98 110.5,-104 104.5,-110 98.5,-110"/>
<text text-anchor="middle" x="81.5" y="-36.8" font-family="Open Sans Bold" font-size="9.00" fill="#2d3436">Objectstorage…</text>
<text text-anchor="middle" x="81.5" y="-26.8" font-family="Open Sans Bold" font-size="9.00" fill="#2d3436">site</text>
</g>
</g>
</svg>
