<?xml version="1.0" encoding="UTF-8" standalone="no"?>
<!DOCTYPE svg PUBLIC "-//W3C//DTD SVG 1.1//EN"
 "http://www.w3.org/Graphics/SVG/1.1/DTD/svg11.dtd">
<!-- Generated by graphviz version 2.43.0 (0)
 -->
<!-- Title: Architecture (Terraform) Pages: 1 -->
<svg width="433pt" height="1973pt"
 viewBox="0.00 0.00 432.80 1972.80" xmlns="http://www.w3.org/2000/svg" xmlns:xlink="http://www.w3.org/1999/xlink">
<g id="graph0" class="graph" transform="scale(1 1) rotate(0) translate(14.4 1958.4)">
<title>Architecture (Terraform)</title>
<text text-anchor="middle" x="202" y="-9.6" font-family="Helvetica,sans-Serif" font-size="18.00" fill="#2d3436">Architecture (Terraform)</text>
<g id="clust1" class="cluster">
<title>cluster_Network</title>
<path fill="#e5f5fd" stroke="#aeb6be" d="M121,-247C121,-247 283,-247 283,-247 289,-247 295,-253 295,-259 295,-259 295,-1498 295,-1498 295,-1504 289,-1510 283,-1510 283,-1510 121,-1510 121,-1510 115,-1510 109,-1504 109,-1498 109,-1498 109,-259 109,-259 109,-253 115,-247 121,-247"/>
<text text-anchor="middle" x="142.5" y="-1496.4" font-family="Sans-Serif" font-size="12.00" fill="#2d3436">Network</text>
</g>
<g id="clust2" class="cluster">
<title>cluster_AWS</title>
<path fill="#ebf3e7" stroke="#aeb6be" d="M129,-255C129,-255 275,-255 275,-255 281,-255 287,-261 287,-267 287,-267 287,-446 287,-446 287,-452 281,-458 275,-458 275,-458 129,-458 129,-458 123,-458 117,-452 117,-446 117,-446 117,-267 117,-267 117,-261 123,-255 129,-255"/>
<text text-anchor="middle" x="139" y="-444.4" font-family="Sans-Serif" font-size="12.00" fill="#2d3436">AWS</text>
</g>
<g id="clust3" class="cluster">
<title>cluster_Azure</title>
<path fill="#ebf3e7" stroke="#aeb6be" d="M129,-466C129,-466 275,-466 275,-466 281,-466 287,-472 287,-478 287,-478 287,-836 287,-836 287,-842 281,-848 275,-848 275,-848 129,-848 129,-848 123,-848 117,-842 117,-836 117,-836 117,-478 117,-478 117,-472 123,-466 129,-466"/>
<text text-anchor="middle" x="142" y="-834.4" font-family="Sans-Serif" font-size="12.00" fill="#2d3436">Azure</text>
</g>
<g id="clust4" class="cluster">
<title>cluster_GCP</title>
<path fill="#ebf3e7" stroke="#aeb6be" d="M129,-856C129,-856 275,-856 275,-856 281,-856 287,-862 287,-868 287,-868 287,-1047 287,-1047 287,-1053 281,-1059 275,-1059 275,-1059 129,-1059 129,-1059 123,-1059 117,-1053 117,-1047 117,-1047 117,-868 117,-868 117,-862 123,-856 129,-856"/>
<text text-anchor="middle" x="137.5" y="-1045.4" font-family="Sans-Serif" font-size="12.00" fill="#2d3436">GCP</text>
</g>
<g id="clust5" class="cluster">
<title>cluster_IBM</title>
<path fill="#ebf3e7" stroke="#aeb6be" d="M129,-1278C129,-1278 182,-1278 182,-1278 188,-1278 194,-1284 194,-1290 194,-1290 194,-1469 194,-1469 194,-1475 188,-1481 182,-1481 182,-1481 129,-1481 129,-1481 123,-1481 117,-1475 117,-1469 117,-1469 117,-1290 117,-1290 117,-1284 123,-1278 129,-1278"/>
<text text-anchor="middle" x="136.5" y="-1467.4" font-family="Sans-Serif" font-size="12.00" fill="#2d3436">IBM</text>
</g>
<g id="clust6" class="cluster">
<title>cluster_OCI</title>
<path fill="#ebf3e7" stroke="#aeb6be" d="M129,-1067C129,-1067 275,-1067 275,-1067 281,-1067 287,-1073 287,-1079 287,-1079 287,-1258 287,-1258 287,-1264 281,-1270 275,-1270 275,-1270 129,-1270 129,-1270 123,-1270 117,-1264 117,-1258 117,-1258 117,-1079 117,-1079 117,-1073 123,-1067 129,-1067"/>
<text text-anchor="middle" x="136" y="-1256.4" font-family="Sans-Serif" font-size="12.00" fill="#2d3436">OCI</text>
</g>
<g id="clust7" class="cluster">
<title>cluster_Security</title>
<path fill="#e5f5fd" stroke="#aeb6be" d="M214,-1518C214,-1518 283,-1518 283,-1518 289,-1518 295,-1524 295,-1530 295,-1530 295,-1746 295,-1746 295,-1752 289,-1758 283,-1758 283,-1758 214,-1758 214,-1758 208,-1758 202,-1752 202,-1746 202,-1746 202,-1530 202,-1530 202,-1524 208,-1518 214,-1518"/>
<text text-anchor="middle" x="234.5" y="-1744.4" font-family="Sans-Serif" font-size="12.00" fill="#2d3436">Security</text>
</g>
<g id="clust8" class="cluster">
<title>cluster_AWS</title>
<path fill="#ebf3e7" stroke="#aeb6be" d="M222,-1526C222,-1526 275,-1526 275,-1526 281,-1526 287,-1532 287,-1538 287,-1538 287,-1717 287,-1717 287,-1723 281,-1729 275,-1729 275,-1729 222,-1729 222,-1729 216,-1729 210,-1723 210,-1717 210,-1717 210,-1538 210,-1538 210,-1532 216,-1526 222,-1526"/>
<text text-anchor="middle" x="232" y="-1715.4" font-family="Sans-Serif" font-size="12.00" fill="#2d3436">AWS</text>
</g>
<g id="clust9" class="cluster">
<title>cluster_Containers</title>
<path fill="#e5f5fd" stroke="#aeb6be" d="M315,-36C315,-36 384,-36 384,-36 390,-36 396,-42 396,-48 396,-48 396,-686 396,-686 396,-692 390,-698 384,-698 384,-698 315,-698 315,-698 309,-698 303,-692 303,-686 303,-686 303,-48 303,-48 303,-42 309,-36 315,-36"/>
<text text-anchor="middle" x="343.5" y="-684.4" font-family="Sans-Serif" font-size="12.00" fill="#2d3436">Containers</text>
</g>
<g id="clust10" class="cluster">
<title>cluster_AWS</title>
<path fill="#ebf3e7" stroke="#aeb6be" d="M323,-255C323,-255 376,-255 376,-255 382,-255 388,-261 388,-267 388,-267 388,-446 388,-446 388,-452 382,-458 376,-458 376,-458 323,-458 323,-458 317,-458 311,-452 311,-446 311,-446 311,-267 311,-267 311,-261 317,-255 323,-255"/>
<text text-anchor="middle" x="333" y="-444.4" font-family="Sans-Serif" font-size="12.00" fill="#2d3436">AWS</text>
</g>
<g id="clust11" class="cluster">
<title>cluster_Azure</title>
<path fill="#ebf3e7" stroke="#aeb6be" d="M323,-44C323,-44 376,-44 376,-44 382,-44 388,-50 388,-56 388,-56 388,-235 388,-235 388,-241 382,-247 376,-247 376,-247 323,-247 323,-247 317,-247 311,-241 311,-235 311,-235 311,-56 311,-56 311,-50 317,-44 323,-44"/>
<text text-anchor="middle" x="336" y="-233.4" font-family="Sans-Serif" font-size="12.00" fill="#2d3436">Azure</text>
</g>
<g id="clust12" class="cluster">
<title>cluster_GCP</title>
<path fill="#ebf3e7" stroke="#aeb6be" d="M323,-466C323,-466 376,-466 376,-466 382,-466 388,-472 388,-478 388,-478 388,-657 388,-657 388,-663 382,-669 376,-669 376,-669 323,-669 323,-669 317,-669 311,-663 311,-657 311,-657 311,-478 311,-478 311,-472 317,-466 323,-466"/>
<text text-anchor="middle" x="331.5" y="-655.4" font-family="Sans-Serif" font-size="12.00" fill="#2d3436">GCP</text>
</g>
<g id="clust13" class="cluster">
<title>cluster_Compute</title>
<path fill="#e5f5fd" stroke="#aeb6be" d="M315,-852C315,-852 384,-852 384,-852 390,-852 396,-858 396,-864 396,-864 396,-1924 396,-1924 396,-1930 390,-1936 384,-1936 384,-1936 315,-1936 315,-1936 309,-1936 303,-1930 303,-1924 303,-1924 303,-864 303,-864 303,-858 309,-852 315,-852"/>
<text text-anchor="middle" x="338.5" y="-1922.4" font-family="Sans-Serif" font-size="12.00" fill="#2d3436">Compute</text>
</g>
<g id="clust14" class="cluster">
<title>cluster_AWS</title>
<path fill="#ebf3e7" stroke="#aeb6be" d="M323,-860C323,-860 376,-860 376,-860 382,-860 388,-866 388,-872 388,-872 388,-1051 388,-1051 388,-1057 382,-1063 376,-1063 376,-1063 323,-1063 323,-1063 317,-1063 311,-1057 311,-1051 311,-1051 311,-872 311,-872 311,-866 317,-860 323,-860"/>
<text text-anchor="middle" x="333" y="-1049.4" font-family="Sans-Serif" font-size="12.00" fill="#2d3436">AWS</text>
</g>
<g id="clust15" class="cluster">
<title>cluster_Azure</title>
<path fill="#ebf3e7" stroke="#aeb6be" d="M323,-1493C323,-1493 376,-1493 376,-1493 382,-1493 388,-1499 388,-1505 388,-1505 388,-1684 388,-1684 388,-1690 382,-1696 376,-1696 376,-1696 323,-1696 323,-1696 317,-1696 311,-1690 311,-1684 311,-1684 311,-1505 311,-1505 311,-1499 317,-1493 323,-1493"/>
<text text-anchor="middle" x="336" y="-1682.4" font-family="Sans-Serif" font-size="12.00" fill="#2d3436">Azure</text>
</g>
<g id="clust16" class="cluster">
<title>cluster_GCP</title>
<path fill="#ebf3e7" stroke="#aeb6be" d="M323,-1282C323,-1282 376,-1282 376,-1282 382,-1282 388,-1288 388,-1294 388,-1294 388,-1473 388,-1473 388,-1479 382,-1485 376,-1485 376,-1485 323,-1485 323,-1485 317,-1485 311,-1479 311,-1473 311,-1473 311,-1294 311,-1294 311,-1288 317,-1282 323,-1282"/>
<text text-anchor="middle" x="331.5" y="-1471.4" font-family="Sans-Serif" font-size="12.00" fill="#2d3436">GCP</text>
</g>
<g id="clust17" class="cluster">
<title>cluster_IBM</title>
<path fill="#ebf3e7" stroke="#aeb6be" d="M323,-1704C323,-1704 376,-1704 376,-1704 382,-1704 388,-1710 388,-1716 388,-1716 388,-1895 388,-1895 388,-1901 382,-1907 376,-1907 376,-1907 323,-1907 323,-1907 317,-1907 311,-1901 311,-1895 311,-1895 311,-1716 311,-1716 311,-1710 317,-1704 323,-1704"/>
<text text-anchor="middle" x="330.5" y="-1893.4" font-family="Sans-Serif" font-size="12.00" fill="#2d3436">IBM</text>
</g>
<g id="clust18" class="cluster">
<title>cluster_OCI</title>
<path fill="#ebf3e7" stroke="#aeb6be" d="M323,-1071C323,-1071 376,-1071 376,-1071 382,-1071 388,-1077 388,-1083 388,-1083 388,-1262 388,-1262 388,-1268 382,-1274 376,-1274 376,-1274 323,-1274 323,-1274 317,-1274 311,-1268 311,-1262 311,-1262 311,-1083 311,-1083 311,-1077 317,-1071 323,-1071"/>
<text text-anchor="middle" x="330" y="-1260.4" font-family="Sans-Serif" font-size="12.00" fill="#2d3436">OCI</text>
</g>
<g id="clust19" class="cluster">
<title>cluster_Other</title>
<path fill="#e5f5fd" stroke="#aeb6be" d="M20,-547C20,-547 89,-547 89,-547 95,-547 101,-553 101,-559 101,-559 101,-775 101,-775 101,-781 95,-787 89,-787 89,-787 20,-787 20,-787 14,-787 8,-781 8,-775 8,-775 8,-559 8,-559 8,-553 14,-547 20,-547"/>
<text text-anchor="middle" x="33.5" y="-773.4" font-family="Sans-Serif" font-size="12.00" fill="#2d3436">Other</text>
</g>
<g id="clust20" class="cluster">
<title>cluster_Azure</title>
<path fill="#ebf3e7" stroke="#aeb6be" d="M28,-555C28,-555 81,-555 81,-555 87,-555 93,-561 93,-567 93,-567 93,-746 93,-746 93,-752 87,-758 81,-758 81,-758 28,-758 28,-758 22,-758 16,-752 16,-746 16,-746 16,-567 16,-567 16,-561 22,-555 28,-555"/>
<text text-anchor="middle" x="41" y="-744.4" font-family="Sans-Serif" font-size="12.00" fill="#2d3436">Azure</text>
</g>
<!-- 38568945e1944afe98c558d6a13f2cf0&#45;&gt;f9a18f0ea9e34f6faebd89762b1e9bb0 -->
<g id="edge2" class="edge">
<title>38568945e1944afe98c558d6a13f2cf0&#45;&gt;f9a18f0ea9e34f6faebd89762b1e9bb0</title>
<path fill="none" stroke="#6b7280" stroke-width="0.9" d="M279.08,-318.33C279.08,-318.33 312.18,-318.33 312.18,-318.33"/>
<polygon fill="#6b7280" stroke="#6b7280" stroke-width="0.9" points="312.18,-320.61 318.68,-318.33 312.18,-316.06 312.18,-320.61"/>
</g>
<!-- 38568945e1944afe98c558d6a13f2cf0&#45;&gt;132a9d02a8e9424b81ea99d9d90c898d -->
<g id="edge3" class="edge">
<title>38568945e1944afe98c558d6a13f2cf0&#45;&gt;132a9d02a8e9424b81ea99d9d90c898d</title>
<path fill="none" stroke="#6b7280" stroke-width="0.9" d="M279.02,-373.67C294.88,-373.67 311,-373.67 311,-373.67 311,-373.67 311,-908.5 311,-908.5 311,-908.5 312.29,-908.5 312.29,-908.5"/>
<polygon fill="#6b7280" stroke="#6b7280" stroke-width="0.9" points="312.29,-910.78 318.79,-908.5 312.29,-906.23 312.29,-910.78"/>
</g>
<!-- 25f99a0f0d184e55848acb3ce24ffef0&#45;&gt;38568945e1944afe98c558d6a13f2cf0 -->
<g id="edge6" class="edge">
<title>25f99a0f0d184e55848acb3ce24ffef0&#45;&gt;38568945e1944afe98c558d6a13f2cf0</title>
<path fill="none" stroke="#6b7280" stroke-width="0.9" d="M186.21,-318.33C186.21,-318.33 211.32,-318.33 211.32,-318.33"/>
<polygon fill="#6b7280" stroke="#6b7280" stroke-width="0.9" points="211.32,-320.61 217.82,-318.33 211.32,-316.06 211.32,-320.61"/>
</g>
<!-- 25f99a0f0d184e55848acb3ce24ffef0&#45;&gt;eb0fcb2b8cf249a8880647d42cf764c2 -->
<g id="edge5" class="edge">
<title>25f99a0f0d184e55848acb3ce24ffef0&#45;&gt;eb0fcb2b8cf249a8880647d42cf764c2</title>
<path fill="none" stroke="#6b7280" stroke-width="0.9" d="M186.21,-373.67C190.78,-373.67 194,-373.67 194,-373.67 194,-373.67 194,-1617 194,-1617 194,-1617 211.25,-1617 211.25,-1617"/>
<polygon fill="#6b7280" stroke="#6b7280" stroke-width="0.9" points="211.25,-1619.28 217.75,-1617 211.25,-1614.73 211.25,-1619.28"/>
</g>
<!-- 25f99a0f0d184e55848acb3ce24ffef0&#45;&gt;f9a18f0ea9e34f6faebd89762b1e9bb0 -->
<g id="edge4" class="edge">
<title>25f99a0f0d184e55848acb3ce24ffef0&#45;&gt;f9a18f0ea9e34f6faebd89762b1e9bb0</title>
<path fill="none" stroke="#6b7280" stroke-width="0.9" d="M156,-429.13C156,-442.2 156,-451.5 156,-451.5 156,-451.5 350,-451.5 350,-451.5 350,-451.5 350,-435.63 350,-435.63"/>
<polygon fill="#6b7280" stroke="#6b7280" stroke-width="0.9" points="352.28,-435.63 350,-429.13 347.73,-435.63 352.28,-435.63"/>
</g>
<!-- 99c3b378e9fb443a922388f317711b46&#45;&gt;da0d6c85d8ac48e9b494ca4cfe5f8029 -->
<g id="edge12" class="edge">
<title>99c3b378e9fb443a922388f317711b46&#45;&gt;da0d6c85d8ac48e9b494ca4cfe5f8029</title>
<path fill="none" stroke="#6b7280" stroke-width="0.9" d="M279.21,-684.5C283.78,-684.5 287,-684.5 287,-684.5 287,-684.5 287,-1512 287,-1512 287,-1512 312.48,-1512 312.48,-1512"/>
<polygon fill="#6b7280" stroke="#6b7280" stroke-width="0.9" points="312.48,-1514.28 318.98,-1512 312.48,-1509.73 312.48,-1514.28"/>
</g>
<!-- 3b8c42a3d66445dca5ab7a63ececc97d&#45;&gt;99c3b378e9fb443a922388f317711b46 -->
<g id="edge14" class="edge">
<title>3b8c42a3d66445dca5ab7a63ececc97d&#45;&gt;99c3b378e9fb443a922388f317711b46</title>
<path fill="none" stroke="#6b7280" stroke-width="0.9" d="M186.21,-703.67C186.21,-703.67 211.32,-703.67 211.32,-703.67"/>
<polygon fill="#6b7280" stroke="#6b7280" stroke-width="0.9" points="211.32,-705.94 217.82,-703.67 211.32,-701.39 211.32,-705.94"/>
</g>
<!-- 3b8c42a3d66445dca5ab7a63ececc97d&#45;&gt;fcea16d5a41f497e824d48e8184d77cf -->
<g id="edge13" class="edge">
<title>3b8c42a3d66445dca5ab7a63ececc97d&#45;&gt;fcea16d5a41f497e824d48e8184d77cf</title>
<path fill="none" stroke="#6b7280" stroke-width="0.9" d="M186.26,-678.33C194.9,-678.33 202,-678.33 202,-678.33 202,-678.33 202,-162.67 202,-162.67 202,-162.67 312.44,-162.67 312.44,-162.67"/>
<polygon fill="#6b7280" stroke="#6b7280" stroke-width="0.9" points="312.44,-164.94 318.94,-162.67 312.44,-160.39 312.44,-164.94"/>
</g>
<!-- 20d796da29e2443987d48278a4691a8e&#45;&gt;3c78383763bf4156ab62e8ec003482cf -->
<g id="edge15" class="edge">
<title>20d796da29e2443987d48278a4691a8e&#45;&gt;3c78383763bf4156ab62e8ec003482cf</title>
<path fill="none" stroke="#6b7280" stroke-width="0.9" d="M279.25,-989.5C291.62,-989.5 303,-989.5 303,-989.5 303,-989.5 303,-1344 303,-1344 303,-1344 312.24,-1344 312.24,-1344"/>
<polygon fill="#6b7280" stroke="#6b7280" stroke-width="0.9" points="312.24,-1346.28 318.74,-1344 312.24,-1341.73 312.24,-1346.28"/>
</g>
<!-- 40cee106d041430d85220cdb0e01f2c8&#45;&gt;20d796da29e2443987d48278a4691a8e -->
<g id="edge16" class="edge">
<title>40cee106d041430d85220cdb0e01f2c8&#45;&gt;20d796da29e2443987d48278a4691a8e</title>
<path fill="none" stroke="#6b7280" stroke-width="0.9" d="M186.21,-919.33C186.21,-919.33 211.32,-919.33 211.32,-919.33"/>
<polygon fill="#6b7280" stroke="#6b7280" stroke-width="0.9" points="211.32,-921.61 217.82,-919.33 211.32,-917.06 211.32,-921.61"/>
</g>
<!-- 40cee106d041430d85220cdb0e01f2c8&#45;&gt;b53ae2ec11924bea89af5111d2f2a17a -->
<g id="edge18" class="edge">
<title>40cee106d041430d85220cdb0e01f2c8&#45;&gt;b53ae2ec11924bea89af5111d2f2a17a</title>
<path fill="none" stroke="#6b7280" stroke-width="0.9" d="M156,-863.87C156,-850.8 156,-841.5 156,-841.5 156,-841.5 350,-841.5 350,-841.5 350,-841.5 350,-646.55 350,-646.55"/>
<polygon fill="#6b7280" stroke="#6b7280" stroke-width="0.9" points="352.28,-646.55 350,-640.05 347.73,-646.55 352.28,-646.55"/>
</g>
<!-- 40cee106d041430d85220cdb0e01f2c8&#45;&gt;3c78383763bf4156ab62e8ec003482cf -->
<g id="edge17" class="edge">
<title>40cee106d041430d85220cdb0e01f2c8&#45;&gt;3c78383763bf4156ab62e8ec003482cf</title>
<path fill="none" stroke="#6b7280" stroke-width="0.9" d="M186.25,-974.67C198.62,-974.67 210,-974.67 210,-974.67 210,-974.67 210,-1398 210,-1398 210,-1398 312.39,-1398 312.39,-1398"/>
<polygon fill="#6b7280" stroke="#6b7280" stroke-width="0.9" points="312.39,-1400.28 318.89,-1398 312.39,-1395.73 312.39,-1400.28"/>
</g>
<!-- f0549e255128417e8a147e67e816ee0f&#45;&gt;4e5ca0643b174473af041dd61b60dd2b -->
<g id="edge19" class="edge">
<title>f0549e255128417e8a147e67e816ee0f&#45;&gt;4e5ca0643b174473af041dd61b60dd2b</title>
<path fill="none" stroke="#6b7280" stroke-width="0.9" d="M156,-1452.15C156,-1576.12 156,-1795 156,-1795 156,-1795 312.34,-1795 312.34,-1795"/>
<polygon fill="#6b7280" stroke="#6b7280" stroke-width="0.9" points="312.34,-1797.28 318.84,-1795 312.34,-1792.73 312.34,-1797.28"/>
</g>
<!-- 98e7c8c902c2459cb2f7d672ab75b0d2&#45;&gt;1ceb3c8ba47c45bb814c3ac332b20c5f -->
<g id="edge20" class="edge">
<title>98e7c8c902c2459cb2f7d672ab75b0d2&#45;&gt;1ceb3c8ba47c45bb814c3ac332b20c5f</title>
<path fill="none" stroke="#6b7280" stroke-width="0.9" d="M279.08,-1160C279.08,-1160 312.18,-1160 312.18,-1160"/>
<polygon fill="#6b7280" stroke="#6b7280" stroke-width="0.9" points="312.18,-1162.28 318.68,-1160 312.18,-1157.73 312.18,-1162.28"/>
</g>
<!-- e5d4a75004634366ad4d13e3cfdb832f&#45;&gt;98e7c8c902c2459cb2f7d672ab75b0d2 -->
<g id="edge21" class="edge">
<title>e5d4a75004634366ad4d13e3cfdb832f&#45;&gt;98e7c8c902c2459cb2f7d672ab75b0d2</title>
<path fill="none" stroke="#6b7280" stroke-width="0.9" d="M186.21,-1158C186.21,-1158 211.32,-1158 211.32,-1158"/>
<polygon fill="#6b7280" stroke="#6b7280" stroke-width="0.9" points="211.32,-1160.28 217.82,-1158 211.32,-1155.73 211.32,-1160.28"/>
</g>
<!-- eb0fcb2b8cf249a8880647d42cf764c2&#45;&gt;132a9d02a8e9424b81ea99d9d90c898d -->
<g id="edge1" class="edge">
<title>eb0fcb2b8cf249a8880647d42cf764c2&#45;&gt;132a9d02a8e9424b81ea99d9d90c898d</title>
<path fill="none" stroke="#6b7280" stroke-width="0.9" d="M279.26,-1600.5C287.9,-1600.5 295,-1600.5 295,-1600.5 295,-1600.5 295,-949 295,-949 295,-949 312.25,-949 312.25,-949"/>
<polygon fill="#6b7280" stroke="#6b7280" stroke-width="0.9" points="312.25,-951.28 318.75,-949 312.25,-946.73 312.25,-951.28"/>
</g>
<!-- 4312d72b85e0465b98b25d754bdc491a&#45;&gt;26d4dd872b2b41fdaacc9c7128d80809 -->
<g id="edge9" class="edge">
<title>4312d72b85e0465b98b25d754bdc491a&#45;&gt;26d4dd872b2b41fdaacc9c7128d80809</title>
<path fill="none" stroke="#6b7280" stroke-width="0.9" d="M85.08,-601.5C85.08,-601.5 118.18,-601.5 118.18,-601.5"/>
<polygon fill="#6b7280" stroke="#6b7280" stroke-width="0.9" points="118.18,-603.78 124.68,-601.5 118.18,-599.23 118.18,-603.78"/>
</g>
<!-- 4312d72b85e0465b98b25d754bdc491a&#45;&gt;99c3b378e9fb443a922388f317711b46 -->
<g id="edge10" class="edge">
<title>4312d72b85e0465b98b25d754bdc491a&#45;&gt;99c3b378e9fb443a922388f317711b46</title>
<path fill="none" stroke="#6b7280" stroke-width="0.9" d="M85.24,-646.5C85.24,-646.5 211.4,-646.5 211.4,-646.5"/>
<polygon fill="#6b7280" stroke="#6b7280" stroke-width="0.9" points="211.4,-648.78 217.9,-646.5 211.4,-644.23 211.4,-648.78"/>
</g>
<!-- 4312d72b85e0465b98b25d754bdc491a&#45;&gt;3b8c42a3d66445dca5ab7a63ececc97d -->
<g id="edge11" class="edge">
<title>4312d72b85e0465b98b25d754bdc491a&#45;&gt;3b8c42a3d66445dca5ab7a63ececc97d</title>
<path fill="none" stroke="#6b7280" stroke-width="0.9" d="M85.08,-691C85.08,-691 118.18,-691 118.18,-691"/>
<polygon fill="#6b7280" stroke="#6b7280" stroke-width="0.9" points="118.18,-693.28 124.68,-691 118.18,-688.73 118.18,-693.28"/>
</g>
<!-- 4312d72b85e0465b98b25d754bdc491a&#45;&gt;fcea16d5a41f497e824d48e8184d77cf -->
<g id="edge7" class="edge">
<title>4312d72b85e0465b98b25d754bdc491a&#45;&gt;fcea16d5a41f497e824d48e8184d77cf</title>
<path fill="none" stroke="#6b7280" stroke-width="0.9" d="M55,-562.72C55,-411.52 55,-107.33 55,-107.33 55,-107.33 312.32,-107.33 312.32,-107.33"/>
<polygon fill="#6b7280" stroke="#6b7280" stroke-width="0.9" points="312.32,-109.61 318.82,-107.33 312.32,-105.06 312.32,-109.61"/>
</g>
<!-- 4312d72b85e0465b98b25d754bdc491a&#45;&gt;da0d6c85d8ac48e9b494ca4cfe5f8029 -->
<g id="edge8" class="edge">
<title>4312d72b85e0465b98b25d754bdc491a&#45;&gt;da0d6c85d8ac48e9b494ca4cfe5f8029</title>
<path fill="none" stroke="#6b7280" stroke-width="0.9" d="M55,-729.3C55,-948.21 55,-1523 55,-1523 55,-1523 312.32,-1523 312.32,-1523"/>
<polygon fill="#6b7280" stroke="#6b7280" stroke-width="0.9" points="312.32,-1525.28 318.82,-1523 312.32,-1520.73 312.32,-1525.28"/>
</g>
<!-- 38568945e1944afe98c558d6a13f2cf0 -->
<g id="node1" class="node">
<title>38568945e1944afe98c558d6a13f2cf0</title>
<image xlink:href="/home/suryakumaran/GitHub/auto-arch-diagram/.venv/lib/python3.12/site-packages/resources/aws/network/private-subnet.png" width="61px" height="61px" preserveAspectRatio="xMinYMin meet" x="218" y="-376.5"/>
<text text-anchor="middle" x="248.5" y="-275.8" font-family="Helvetica,sans-Serif" font-size="9.00" fill="#2d3436">Subnet</text>
<text text-anchor="middle" x="248.5" y="-265.8" font-family="Helvetica,sans-Serif" font-size="9.00" fill="#2d3436">public</text>
</g>
<!-- 25f99a0f0d184e55848acb3ce24ffef0 -->
<g id="node2" class="node">
<title>25f99a0f0d184e55848acb3ce24ffef0</title>
<image xlink:href="/home/suryakumaran/GitHub/auto-arch-diagram/.venv/lib/python3.12/site-packages/resources/aws/network/vpc.png" width="61px" height="61px" preserveAspectRatio="xMinYMin meet" x="125" y="-376.5"/>
<text text-anchor="middle" x="155.5" y="-275.8" font-family="Helvetica,sans-Serif" font-size="9.00" fill="#2d3436">VPC</text>
<text text-anchor="middle" x="155.5" y="-265.8" font-family="Helvetica,sans-Serif" font-size="9.00" fill="#2d3436">main</text>
</g>
<!-- 26d4dd872b2b41fdaacc9c7128d80809 -->
<g id="node3" class="node">
<title>26d4dd872b2b41fdaacc9c7128d80809</title>
<image xlink:href="/home/suryakumaran/GitHub/auto-arch-diagram/.venv/lib/python3.12/site-packages/resources/azure/security/security-center.png" width="61px" height="61px" preserveAspectRatio="xMinYMin meet" x="125" y="-587.5"/>
<text text-anchor="middle" x="155.5" y="-486.8" font-family="Helvetica,sans-Serif" font-size="9.00" fill="#2d3436">Network…</text>
<text text-anchor="middle" x="155.5" y="-476.8" font-family="Helvetica,sans-Serif" font-size="9.00" fill="#2d3436">nsg</text>
</g>
<!-- 99c3b378e9fb443a922388f317711b46 -->
<g id="node4" class="node">
<title>99c3b378e9fb443a922388f317711b46</title>
<image xlink:href="/home/suryakumaran/GitHub/auto-arch-diagram/.venv/lib/python3.12/site-packages/resources/azure/network/subnets.png" width="61px" height="61px" preserveAspectRatio="xMinYMin meet" x="218" y="-676.5"/>
<text text-anchor="middle" x="248.5" y="-575.8" font-family="Helvetica,sans-Serif" font-size="9.00" fill="#2d3436">Subnet</text>
<text text-anchor="middle" x="248.5" y="-565.8" font-family="Helvetica,sans-Serif" font-size="9.00" fill="#2d3436">subnet</text>
</g>
<!-- 3b8c42a3d66445dca5ab7a63ececc97d -->
<g id="node5" class="node">
<title>3b8c42a3d66445dca5ab7a63ececc97d</title>
<image xlink:href="/home/suryakumaran/GitHub/auto-arch-diagram/.venv/lib/python3.12/site-packages/resources/azure/network/virtual-networks.png" width="61px" height="61px" preserveAspectRatio="xMinYMin meet" x="125" y="-766.5"/>
<text text-anchor="middle" x="155.5" y="-665.8" font-family="Helvetica,sans-Serif" font-size="9.00" fill="#2d3436">Virtual…</text>
<text text-anchor="middle" x="155.5" y="-655.8" font-family="Helvetica,sans-Serif" font-size="9.00" fill="#2d3436">vnet</text>
</g>
<!-- 20d796da29e2443987d48278a4691a8e -->
<g id="node6" class="node">
<title>20d796da29e2443987d48278a4691a8e</title>
<image xlink:href="/home/suryakumaran/GitHub/auto-arch-diagram/.venv/lib/python3.12/site-packages/resources/gcp/network/firewall-rules.png" width="61px" height="61px" preserveAspectRatio="xMinYMin meet" x="218" y="-977.5"/>
<text text-anchor="middle" x="248.5" y="-876.8" font-family="Helvetica,sans-Serif" font-size="9.00" fill="#2d3436">Compute…</text>
<text text-anchor="middle" x="248.5" y="-866.8" font-family="Helvetica,sans-Serif" font-size="9.00" fill="#2d3436">web</text>
</g>
<!-- 40cee106d041430d85220cdb0e01f2c8 -->
<g id="node7" class="node">
<title>40cee106d041430d85220cdb0e01f2c8</title>
<image xlink:href="/home/suryakumaran/GitHub/auto-arch-diagram/.venv/lib/python3.12/site-packages/resources/gcp/network/virtual-private-cloud.png" width="61px" height="61px" preserveAspectRatio="xMinYMin meet" x="125" y="-977.5"/>
<text text-anchor="middle" x="155.5" y="-876.8" font-family="Helvetica,sans-Serif" font-size="9.00" fill="#2d3436">Compute…</text>
<text text-anchor="middle" x="155.5" y="-866.8" font-family="Helvetica,sans-Serif" font-size="9.00" fill="#2d3436">vpc</text>
</g>
<!-- f0549e255128417e8a147e67e816ee0f -->
<g id="node8" class="node">
<title>f0549e255128417e8a147e67e816ee0f</title>
<image xlink:href="/home/suryakumaran/GitHub/auto-arch-diagram/.venv/lib/python3.12/site-packages/resources/generic/compute/rack.png" width="61px" height="61px" preserveAspectRatio="xMinYMin meet" x="125" y="-1399.5"/>
<text text-anchor="middle" x="155.5" y="-1298.8" font-family="Helvetica,sans-Serif" font-size="9.00" fill="#2d3436">Is VPC</text>
<text text-anchor="middle" x="155.5" y="-1288.8" font-family="Helvetica,sans-Serif" font-size="9.00" fill="#2d3436">vpc</text>
</g>
<!-- 98e7c8c902c2459cb2f7d672ab75b0d2 -->
<g id="node9" class="node">
<title>98e7c8c902c2459cb2f7d672ab75b0d2</title>
<image xlink:href="/home/suryakumaran/GitHub/auto-arch-diagram/.venv/lib/python3.12/site-packages/resources/generic/compute/rack.png" width="61px" height="61px" preserveAspectRatio="xMinYMin meet" x="218" y="-1188.5"/>
<text text-anchor="middle" x="248.5" y="-1087.8" font-family="Helvetica,sans-Serif" font-size="9.00" fill="#2d3436">Core Subnet</text>
<text text-anchor="middle" x="248.5" y="-1077.8" font-family="Helvetica,sans-Serif" font-size="9.00" fill="#2d3436">subnet</text>
</g>
<!-- e5d4a75004634366ad4d13e3cfdb832f -->
<g id="node10" class="node">
<title>e5d4a75004634366ad4d13e3cfdb832f</title>
<image xlink:href="/home/suryakumaran/GitHub/auto-arch-diagram/.venv/lib/python3.12/site-packages/resources/generic/compute/rack.png" width="61px" height="61px" preserveAspectRatio="xMinYMin meet" x="125" y="-1188.5"/>
<text text-anchor="middle" x="155.5" y="-1087.8" font-family="Helvetica,sans-Serif" font-size="9.00" fill="#2d3436">Core VCN</text>
<text text-anchor="middle" x="155.5" y="-1077.8" font-family="Helvetica,sans-Serif" font-size="9.00" fill="#2d3436">vcn</text>
</g>
<!-- eb0fcb2b8cf249a8880647d42cf764c2 -->
<g id="node11" class="node">
<title>eb0fcb2b8cf249a8880647d42cf764c2</title>
<image xlink:href="/home/suryakumaran/GitHub/auto-arch-diagram/.venv/lib/python3.12/site-packages/resources/generic/compute/rack.png" width="61px" height="61px" preserveAspectRatio="xMinYMin meet" x="218" y="-1647.5"/>
<text text-anchor="middle" x="248.5" y="-1546.8" font-family="Helvetica,sans-Serif" font-size="9.00" fill="#2d3436">Security Group</text>
<text text-anchor="middle" x="248.5" y="-1536.8" font-family="Helvetica,sans-Serif" font-size="9.00" fill="#2d3436">web</text>
</g>
<!-- f9a18f0ea9e34f6faebd89762b1e9bb0 -->
<g id="node12" class="node">
<title>f9a18f0ea9e34f6faebd89762b1e9bb0</title>
<image xlink:href="/home/suryakumaran/GitHub/auto-arch-diagram/.venv/lib/python3.12/site-packages/resources/aws/compute/elastic-kubernetes-service.png" width="61px" height="61px" preserveAspectRatio="xMinYMin meet" x="319" y="-376.5"/>
<text text-anchor="middle" x="349.5" y="-275.8" font-family="Helvetica,sans-Serif" font-size="9.00" fill="#2d3436">EKS Cluster</text>
<text text-anchor="middle" x="349.5" y="-265.8" font-family="Helvetica,sans-Serif" font-size="9.00" fill="#2d3436">k8s</text>
</g>
<!-- fcea16d5a41f497e824d48e8184d77cf -->
<g id="node13" class="node">
<title>fcea16d5a41f497e824d48e8184d77cf</title>
<image xlink:href="/home/suryakumaran/GitHub/auto-arch-diagram/.venv/lib/python3.12/site-packages/resources/azure/compute/kubernetes-services.png" width="61px" height="61px" preserveAspectRatio="xMinYMin meet" x="319" y="-165.5"/>
<text text-anchor="middle" x="349.5" y="-64.8" font-family="Helvetica,sans-Serif" font-size="9.00" fill="#2d3436">Kubernetes…</text>
<text text-anchor="middle" x="349.5" y="-54.8" font-family="Helvetica,sans-Serif" font-size="9.00" fill="#2d3436">aks</text>
</g>
<!-- b53ae2ec11924bea89af5111d2f2a17a -->
<g id="node14" class="node">
<title>b53ae2ec11924bea89af5111d2f2a17a</title>
<image xlink:href="/home/suryakumaran/GitHub/auto-arch-diagram/.venv/lib/python3.12/site-packages/resources/gcp/compute/kubernetes-engine.png" width="61px" height="61px" preserveAspectRatio="xMinYMin meet" x="319" y="-587.5"/>
<text text-anchor="middle" x="349.5" y="-486.8" font-family="Helvetica,sans-Serif" font-size="9.00" fill="#2d3436">Container…</text>
<text text-anchor="middle" x="349.5" y="-476.8" font-family="Helvetica,sans-Serif" font-size="9.00" fill="#2d3436">gke</text>
</g>
<!-- 132a9d02a8e9424b81ea99d9d90c898d -->
<g id="node15" class="node">
<title>132a9d02a8e9424b81ea99d9d90c898d</title>
<image xlink:href="/home/suryakumaran/GitHub/auto-arch-diagram/.venv/lib/python3.12/site-packages/resources/aws/compute/ec2.png" width="61px" height="61px" preserveAspectRatio="xMinYMin meet" x="319" y="-981.5"/>
<text text-anchor="middle" x="349.5" y="-880.8" font-family="Helvetica,sans-Serif" font-size="9.00" fill="#2d3436">Instance</text>
<text text-anchor="middle" x="349.5" y="-870.8" font-family="Helvetica,sans-Serif" font-size="9.00" fill="#2d3436">web</text>
</g>
<!-- da0d6c85d8ac48e9b494ca4cfe5f8029 -->
<g id="node16" class="node">
<title>da0d6c85d8ac48e9b494ca4cfe5f8029</title>
<image xlink:href="/home/suryakumaran/GitHub/auto-arch-diagram/.venv/lib/python3.12/site-packages/resources/generic/compute/rack.png" width="61px" height="61px" preserveAspectRatio="xMinYMin meet" x="319" y="-1614.5"/>
<text text-anchor="middle" x="349.5" y="-1513.8" font-family="Helvetica,sans-Serif" font-size="9.00" fill="#2d3436">Linux Virtual…</text>
<text text-anchor="middle" x="349.5" y="-1503.8" font-family="Helvetica,sans-Serif" font-size="9.00" fill="#2d3436">vm</text>
</g>
<!-- 3c78383763bf4156ab62e8ec003482cf -->
<g id="node17" class="node">
<title>3c78383763bf4156ab62e8ec003482cf</title>
<image xlink:href="/home/suryakumaran/GitHub/auto-arch-diagram/.venv/lib/python3.12/site-packages/resources/gcp/compute/compute-engine.png" width="61px" height="61px" preserveAspectRatio="xMinYMin meet" x="319" y="-1403.5"/>
<text text-anchor="middle" x="349.5" y="-1302.8" font-family="Helvetica,sans-Serif" font-size="9.00" fill="#2d3436">Compute…</text>
<text text-anchor="middle" x="349.5" y="-1292.8" font-family="Helvetica,sans-Serif" font-size="9.00" fill="#2d3436">vm</text>
</g>
<!-- 4e5ca0643b174473af041dd61b60dd2b -->
<g id="node18" class="node">
<title>4e5ca0643b174473af041dd61b60dd2b</title>
<image xlink:href="/home/suryakumaran/GitHub/auto-arch-diagram/.venv/lib/python3.12/site-packages/resources/generic/compute/rack.png" width="61px" height="61px" preserveAspectRatio="xMinYMin meet" x="319" y="-1825.5"/>
<text text-anchor="middle" x="349.5" y="-1724.8" font-family="Helvetica,sans-Serif" font-size="9.00" fill="#2d3436">Is Instance</text>
<text text-anchor="middle" x="349.5" y="-1714.8" font-family="Helvetica,sans-Serif" font-size="9.00" fill="#2d3436">vm</text>
</g>
<!-- 1ceb3c8ba47c45bb814c3ac332b20c5f -->
<g id="node19" class="node">
<title>1ceb3c8ba47c45bb814c3ac332b20c5f</title>
<image xlink:href="/home/suryakumaran/GitHub/auto-arch-diagram/.venv/lib/python3.12/site-packages/resources/generic/compute/rack.png" width="61px" height="61px" preserveAspectRatio="xMinYMin meet" x="319" y="-1192.5"/>
<text text-anchor="middle" x="349.5" y="-1091.8" font-family="Helvetica,sans-Serif" font-size="9.00" fill="#2d3436">Core Instance</text>
<text text-anchor="middle" x="349.5" y="-1081.8" font-family="Helvetica,sans-Serif" font-size="9.00" fill="#2d3436">vm</text>
</g>
<!-- 4312d72b85e0465b98b25d754bdc491a -->
<g id="node20" class="node">
<title>4312d72b85e0465b98b25d754bdc491a</title>
<image xlink:href="/home/suryakumaran/GitHub/auto-arch-diagram/.venv/lib/python3.12/site-packages/resources/azure/general/resourcegroups.png" width="61px" height="61px" preserveAspectRatio="xMinYMin meet" x="24" y="-676.5"/>
<text text-anchor="middle" x="54.5" y="-575.8" font-family="Helvetica,sans-Serif" font-size="9.00" fill="#2d3436">Resource Group</text>
<text text-anchor="middle" x="54.5" y="-565.8" font-family="Helvetica,sans-Serif" font-size="9.00" fill="#2d3436">rg</text>
</g>
</g>
</svg>
