<?xml version="1.0" encoding="UTF-8" standalone="no"?>
<!DOCTYPE svg PUBLIC "-//W3C//DTD SVG 1.1//EN"
 "http://www.w3.org/Graphics/SVG/1.1/DTD/svg11.dtd">
<!-- Generated by graphviz version 2.43.0 (0)
 -->
<!-- Title: Architecture (Terraform) Pages: 1 -->
<svg width="260pt" height="561pt"
 viewBox="0.00 0.00 259.80 560.80" xmlns="http://www.w3.org/2000/svg" xmlns:xlink="http://www.w3.org/1999/xlink">
<g id="graph0" class="graph" transform="scale(1 1) rotate(0) translate(14.4 546.4)">
<title>Architecture (Terraform)</title>
<text text-anchor="middle" x="115.5" y="-9.6" font-family="Helvetica,sans-Serif" font-size="18.00" fill="#2d3436">Architecture (Terraform)</text>
<g id="clust1" class="cluster">
<title>cluster_Security</title>
<path fill="#e5f5fd" stroke="#aeb6be" d="M30.5,-284C30.5,-284 99.5,-284 99.5,-284 105.5,-284 111.5,-290 111.5,-296 111.5,-296 111.5,-512 111.5,-512 111.5,-518 105.5,-524 99.5,-524 99.5,-524 30.5,-524 30.5,-524 24.5,-524 18.5,-518 18.5,-512 18.5,-512 18.5,-296 18.5,-296 18.5,-290 24.5,-284 30.5,-284"/>
<text text-anchor="middle" x="51" y="-510.4" font-family="Sans-Serif" font-size="12.00" fill="#2d3436">Security</text>
</g>
<g id="clust2" class="cluster">
<title>cluster_GCP</title>
<path fill="#ebf3e7" stroke="#aeb6be" d="M38.5,-292C38.5,-292 91.5,-292 91.5,-292 97.5,-292 103.5,-298 103.5,-304 103.5,-304 103.5,-483 103.5,-483 103.5,-489 97.5,-495 91.5,-495 91.5,-495 38.5,-495 38.5,-495 32.5,-495 26.5,-489 26.5,-483 26.5,-483 26.5,-304 26.5,-304 26.5,-298 32.5,-292 38.5,-292"/>
<text text-anchor="middle" x="47" y="-481.4" font-family="Sans-Serif" font-size="12.00" fill="#2d3436">GCP</text>
</g>
<g id="clust3" class="cluster">
<title>cluster_Compute</title>
<path fill="#e5f5fd" stroke="#aeb6be" d="M131.5,-160C131.5,-160 200.5,-160 200.5,-160 206.5,-160 212.5,-166 212.5,-172 212.5,-172 212.5,-388 212.5,-388 212.5,-394 206.5,-400 200.5,-400 200.5,-400 131.5,-400 131.5,-400 125.5,-400 119.5,-394 119.5,-388 119.5,-388 119.5,-172 119.5,-172 119.5,-166 125.5,-160 131.5,-160"/>
<text text-anchor="middle" x="155" y="-386.4" font-family="Sans-Serif" font-size="12.00" fill="#2d3436">Compute</text>
</g>
<g id="clust4" class="cluster">
<title>cluster_GCP</title>
<path fill="#ebf3e7" stroke="#aeb6be" d="M139.5,-168C139.5,-168 192.5,-168 192.5,-168 198.5,-168 204.5,-174 204.5,-180 204.5,-180 204.5,-359 204.5,-359 204.5,-365 198.5,-371 192.5,-371 192.5,-371 139.5,-371 139.5,-371 133.5,-371 127.5,-365 127.5,-359 127.5,-359 127.5,-180 127.5,-180 127.5,-174 133.5,-168 139.5,-168"/>
<text text-anchor="middle" x="148" y="-357.4" font-family="Sans-Serif" font-size="12.00" fill="#2d3436">GCP</text>
</g>
<g id="clust5" class="cluster">
<title>cluster_Storage</title>
<path fill="#e5f5fd" stroke="#aeb6be" d="M30.5,-36C30.5,-36 99.5,-36 99.5,-36 105.5,-36 111.5,-42 111.5,-48 111.5,-48 111.5,-264 111.5,-264 111.5,-270 105.5,-276 99.5,-276 99.5,-276 30.5,-276 30.5,-276 24.5,-276 18.5,-270 18.5,-264 18.5,-264 18.5,-48 18.5,-48 18.5,-42 24.5,-36 30.5,-36"/>
<text text-anchor="middle" x="50.5" y="-262.4" font-family="Sans-Serif" font-size="12.00" fill="#2d3436">Storage</text>
</g>
<g id="clust6" class="cluster">
<title>cluster_GCP</title>
<path fill="#ebf3e7" stroke="#aeb6be" d="M38.5,-44C38.5,-44 91.5,-44 91.5,-44 97.5,-44 103.5,-50 103.5,-56 103.5,-56 103.5,-235 103.5,-235 103.5,-241 97.5,-247 91.5,-247 91.5,-247 38.5,-247 38.5,-247 32.5,-247 26.5,-241 26.5,-235 26.5,-235 26.5,-56 26.5,-56 26.5,-50 32.5,-44 38.5,-44"/>
<text text-anchor="middle" x="47" y="-233.4" font-family="Sans-Serif" font-size="12.00" fill="#2d3436">GCP</text>
</g>
<!-- b18b60860a2a4cf9b5bdcd2464259d5e&#45;&gt;ef1c1879d04a44868159c6e558f11c95 -->
<g id="edge1" class="edge">
<title>b18b60860a2a4cf9b5bdcd2464259d5e&#45;&gt;ef1c1879d04a44868159c6e558f11c95</title>
<path fill="none" stroke="#6b7280" stroke-width="0.9" d="M95.58,-321C95.58,-321 128.68,-321 128.68,-321"/>
<polygon fill="#6b7280" stroke="#6b7280" stroke-width="0.9" points="128.68,-323.28 135.18,-321 128.68,-318.73 128.68,-323.28"/>
</g>
<!-- 65c643c711424f35a7c394b396016e65&#45;&gt;ef1c1879d04a44868159c6e558f11c95 -->
<g id="edge2" class="edge">
<title>65c643c711424f35a7c394b396016e65&#45;&gt;ef1c1879d04a44868159c6e558f11c95</title>
<path fill="none" stroke="#6b7280" stroke-width="0.9" d="M95.58,-197C95.58,-197 128.68,-197 128.68,-197"/>
<polygon fill="#6b7280" stroke="#6b7280" stroke-width="0.9" points="128.68,-199.28 135.18,-197 128.68,-194.73 128.68,-199.28"/>
</g>
<!-- b18b60860a2a4cf9b5bdcd2464259d5e -->
<g id="node1" class="node">
<title>b18b60860a2a4cf9b5bdcd2464259d5e</title>
<image xlink:href="/home/suryakumaran/GitHub/auto-arch-diagram/.venv/lib/python3.12/site-packages/resources/generic/compute/rack.png" width="61px" height="61px" preserveAspectRatio="xMinYMin meet" x="34.5" y="-413.5"/>
<text text-anchor="middle" x="65" y="-312.8" font-family="Helvetica,sans-Serif" font-size="9.00" fill="#2d3436">Compute…</text>
<text text-anchor="middle" x="65" y="-302.8" font-family="Helvetica,sans-Serif" font-size="9.00" fill="#2d3436">waf</text>
</g>
<!-- ef1c1879d04a44868159c6e558f11c95 -->
<g id="node2" class="node">
<title>ef1c1879d04a44868159c6e558f11c95</title>
<image xlink:href="/home/suryakumaran/GitHub/auto-arch-diagram/.venv/lib/python3.12/site-packages/resources/generic/compute/rack.png" width="61px" height="61px" preserveAspectRatio="xMinYMin meet" x="135.5" y="-289.5"/>
<text text-anchor="middle" x="166" y="-188.8" font-family="Helvetica,sans-Serif" font-size="9.00" fill="#2d3436">Compute…</text>
<text text-anchor="middle" x="166" y="-178.8" font-family="Helvetica,sans-Serif" font-size="9.00" fill="#2d3436">cdn</text>
</g>
<!-- 65c643c711424f35a7c394b396016e65 -->
<g id="node3" class="node">
<title>65c643c711424f35a7c394b396016e65</title>
<image xlink:href="/home/suryakumaran/GitHub/auto-arch-diagram/.venv/lib/python3.12/site-packages/resources/gcp/storage/storage.png" width="61px" height="61px" preserveAspectRatio="xMinYMin meet" x="34.5" y="-165.5"/>
<text text-anchor="middle" x="65" y="-64.8" font-family="Helvetica,sans-Serif" font-size="9.00" fill="#2d3436">Storage Bucket</text>
<text text-anchor="middle" x="65" y="-54.8" font-family="Helvetica,sans-Serif" font-size="9.00" fill="#2d3436">site</text>
</g>
</g>
</svg>
